<svg width="963" height="352" viewBox="0 0 963 352" fill="none" xmlns="http://www.w3.org/2000/svg">
<g clip-path="url(#clip0_12_130)">
<path d="M91 67.2857H107.071V83.3571H91V67.2857ZM107.071 67.2857H123.143V83.3571H107.071V67.2857ZM123.143 67.2857H139.214V83.3571H123.143V67.2857ZM139.214 67.2857H155.286V83.3571H139.214V67.2857ZM155.286 67.2857H171.357V83.3571H155.286V67.2857ZM171.357 67.2857H187.429V83.3571H171.357V67.2857ZM171.357 83.3571H187.429V99.4286H171.357V83.3571ZM155.286 83.3571H171.357V99.4286H155.286V83.3571ZM139.214 83.3571H155.286V99.4286H139.214V83.3571ZM123.143 83.3571H139.214V99.4286H123.143V83.3571ZM107.071 83.3571H123.143V99.4286H107.071V83.3571ZM91 83.3571H107.071V99.4286H91V83.3571ZM187.429 83.3571H203.5V99.4286H187.429V83.3571ZM187.429 99.4286H203.5V115.5H187.429V99.4286ZM187.429 115.5H203.5V131.571H187.429V115.5ZM171.357 115.5H187.429V131.571H171.357V115.5ZM171.357 99.4286H187.429V115.5H171.357V99.4286ZM171.357 131.571H187.429V147.643H171.357V131.571ZM155.286 131.571H171.357V147.643H155.286V131.571ZM139.214 131.571H155.286V147.643H139.214V131.571ZM123.143 131.571H139.214V147.643H123.143V131.571ZM107.071 131.571H123.143V147.643H107.071V131.571ZM107.071 115.5H123.143V131.571H107.071V115.5ZM107.071 99.4286H123.143V115.5H107.071V99.4286ZM91 99.4286H107.071V115.5H91V99.4286ZM91 115.5H107.071V131.571H91V115.5ZM91 131.571H107.071V147.643H91V131.571ZM91 147.643H107.071V163.714H91V147.643ZM107.071 147.643H123.143V163.714H107.071V147.643ZM123.143 147.643H139.214V163.714H123.143V147.643ZM139.214 147.643H155.286V163.714H139.214V147.643ZM155.286 147.643H171.357V163.714H155.286V147.643ZM171.357 147.643H187.429V163.714H171.357V147.643ZM187.429 147.643H203.5V163.714H187.429V147.643ZM187.429 163.714H203.5V179.786H187.429V163.714ZM171.357 163.714H187.429V179.786H171.357V163.714ZM171.357 195.857H187.429V211.929H171.357V195.857ZM187.429 195.857H203.5V211.929H187.429V195.857ZM187.429 179.786H203.5V195.857H187.429V179.786ZM171.357 179.786H187.429V195.857H171.357V179.786ZM171.357 211.929H187.429V228H171.357V211.929ZM155.286 211.929H171.357V228H155.286V211.929ZM139.214 211.929H155.286V228H139.214V211.929ZM123.143 211.929H139.214V228H123.143V211.929ZM107.071 211.929H123.143V228H107.071V211.929ZM91 211.929H107.071V228H91V211.929ZM91 195.857H107.071V211.929H91V195.857ZM91 179.786H107.071V195.857H91V179.786ZM91 163.714H107.071V179.786H91V163.714ZM107.071 163.714H123.143V179.786H107.071V163.714ZM107.071 179.786H123.143V195.857H107.071V179.786ZM107.071 195.857H123.143V211.929H107.071V195.857ZM123.143 195.857H139.214V211.929H123.143V195.857ZM139.214 195.857H155.286V211.929H139.214V195.857ZM155.286 195.857H171.357V211.929H155.286V195.857ZM289.685 83.3571H305.756V99.4286H289.685V83.3571ZM353.97 83.3571H370.042V99.4286H353.97V83.3571ZM353.97 99.4286H370.042V115.5H353.97V99.4286ZM370.042 83.3571H386.113V99.4286H370.042V83.3571ZM370.042 99.4286H386.113V115.5H370.042V99.4286ZM370.042 115.5H386.113V131.571H370.042V115.5ZM370.042 131.571H386.113V147.643H370.042V131.571ZM370.042 147.643H386.113V163.714H370.042V147.643ZM370.042 163.714H386.113V179.786H370.042V163.714ZM370.042 179.786H386.113V195.857H370.042V179.786ZM370.042 195.857H386.113V211.929H370.042V195.857ZM353.97 195.857H370.042V211.929H353.97V195.857ZM353.97 179.786H370.042V195.857H353.97V179.786ZM353.97 163.714H370.042V179.786H353.97V163.714ZM353.97 147.643H370.042V163.714H353.97V147.643ZM353.97 131.571H370.042V147.643H353.97V131.571ZM353.97 115.5H370.042V131.571H353.97V115.5ZM337.899 179.786H353.97V195.857H337.899V179.786ZM337.899 195.857H353.97V211.929H337.899V195.857ZM353.97 211.929H370.042V228H353.97V211.929ZM337.899 211.929H353.97V228H337.899V211.929ZM321.828 211.929H337.899V228H321.828V211.929ZM321.828 195.857H337.899V211.929H321.828V195.857ZM305.756 211.929H321.828V228H305.756V211.929ZM289.685 211.929H305.756V228H289.685V211.929ZM289.685 195.857H305.756V211.929H289.685V195.857ZM305.756 195.857H321.828V211.929H305.756V195.857ZM305.756 179.786H321.828V195.857H305.756V179.786ZM289.685 179.786H305.756V195.857H289.685V179.786ZM273.613 195.857H289.685V211.929H273.613V195.857ZM273.613 179.786H289.685V195.857H273.613V179.786ZM273.613 163.714H289.685V179.786H273.613V163.714ZM273.613 147.643H289.685V163.714H273.613V147.643ZM273.613 131.571H289.685V147.643H273.613V131.571ZM273.613 115.5H289.685V131.571H273.613V115.5ZM273.613 99.4286H289.685V115.5H273.613V99.4286ZM289.685 99.4286H305.756V115.5H289.685V99.4286ZM273.613 83.3571H289.685V99.4286H273.613V83.3571ZM289.685 115.5H305.756V131.571H289.685V115.5ZM289.685 131.571H305.756V147.643H289.685V131.571ZM289.685 147.643H305.756V163.714H289.685V147.643ZM289.685 163.714H305.756V179.786H289.685V163.714ZM273.613 67.2857H289.685V83.3571H273.613V67.2857ZM289.685 67.2857H305.756V83.3571H289.685V67.2857ZM353.97 67.2857H370.042V83.3571H353.97V67.2857ZM370.042 67.2857H386.113V83.3571H370.042V67.2857ZM456.227 211.929H472.298V228H456.227V211.929ZM472.298 211.929H488.369V228H472.298V211.929ZM472.298 195.857H488.369V211.929H472.298V195.857ZM472.298 179.786H488.369V195.857H472.298V179.786ZM472.298 163.714H488.369V179.786H472.298V163.714ZM472.298 147.643H488.369V163.714H472.298V147.643ZM472.298 131.571H488.369V147.643H472.298V131.571ZM456.227 131.571H472.298V147.643H456.227V131.571ZM456.227 147.643H472.298V163.714H456.227V147.643ZM456.227 163.714H472.298V179.786H456.227V163.714ZM456.227 179.786H472.298V195.857H456.227V179.786ZM456.227 195.857H472.298V211.929H456.227V195.857ZM456.227 115.5H472.298V131.571H456.227V115.5ZM472.298 115.5H488.369V131.571H472.298V115.5ZM472.298 99.4286H488.369V115.5H472.298V99.4286ZM472.298 83.3571H488.369V99.4286H472.298V83.3571ZM472.298 67.2857H488.369V83.3571H472.298V67.2857ZM456.227 67.2857H472.298V83.3571H456.227V67.2857ZM456.227 83.3571H472.298V99.4286H456.227V83.3571ZM456.227 99.4286H472.298V115.5H456.227V99.4286ZM558.566 67.2857H574.638V83.3571H558.566V67.2857ZM574.638 67.2857H590.709V83.3571H574.638V67.2857ZM574.638 83.3571H590.709V99.4286H574.638V83.3571ZM574.638 99.4286H590.709V115.5H574.638V99.4286ZM574.638 115.5H590.709V131.571H574.638V115.5ZM558.566 115.5H574.638V131.571H558.566V115.5ZM558.566 99.4286H574.638V115.5H558.566V99.4286ZM558.566 83.3571H574.638V99.4286H558.566V83.3571ZM558.566 131.571H574.638V147.643H558.566V131.571ZM558.566 147.643H574.638V163.714H558.566V147.643ZM558.566 163.714H574.638V179.786H558.566V163.714ZM574.638 147.643H590.709V163.714H574.638V147.643ZM574.638 131.571H590.709V147.643H574.638V131.571ZM574.638 163.714H590.709V179.786H574.638V163.714ZM574.638 179.786H590.709V195.857H574.638V179.786ZM558.566 195.857H574.638V211.929H558.566V195.857ZM558.566 179.786H574.638V195.857H558.566V179.786ZM558.566 211.929H574.638V228H558.566V211.929ZM574.638 211.929H590.709V228H574.638V211.929ZM574.638 195.857H590.709V211.929H574.638V195.857ZM590.709 211.929H606.781V228H590.709V211.929ZM606.781 211.929H622.852V228H606.781V211.929ZM622.852 211.929H638.924V228H622.852V211.929ZM622.852 195.857H638.924V211.929H622.852V195.857ZM606.781 195.857H622.852V211.929H606.781V195.857ZM590.709 195.857H606.781V211.929H590.709V195.857ZM741.096 67.2857H757.167V83.3571H741.096V67.2857ZM725.025 67.2857H741.096V83.3571H725.025V67.2857ZM725.025 83.3571H741.096V99.4286H725.025V83.3571ZM741.096 83.3571H757.167V99.4286H741.096V83.3571ZM757.167 83.3571H773.239V99.4286H757.167V83.3571ZM757.167 67.2857H773.239V83.3571H757.167V67.2857ZM773.239 67.2857H789.31V83.3571H773.239V67.2857ZM789.31 67.2857H805.382V83.3571H789.31V67.2857ZM789.31 83.3571H805.382V99.4286H789.31V83.3571ZM773.239 83.3571H789.31V99.4286H773.239V83.3571ZM773.239 99.4286H789.31V115.5H773.239V99.4286ZM789.31 99.4286H805.382V115.5H789.31V99.4286ZM805.382 83.3571H821.453V99.4286H805.382V83.3571ZM805.382 99.4286H821.453V115.5H805.382V99.4286ZM805.382 115.5H821.453V131.571H805.382V115.5ZM805.382 131.571H821.453V147.643H805.382V131.571ZM805.382 147.643H821.453V163.714H805.382V147.643ZM805.382 163.714H821.453V179.786H805.382V163.714ZM805.382 179.786H821.453V195.857H805.382V179.786ZM805.382 195.857H821.453V211.929H805.382V195.857ZM789.31 195.857H805.382V211.929H789.31V195.857ZM789.31 179.786H805.382V195.857H789.31V179.786ZM789.31 163.714H805.382V179.786H789.31V163.714ZM789.31 147.643H805.382V163.714H789.31V147.643ZM789.31 131.571H805.382V147.643H789.31V131.571ZM789.31 115.5H805.382V131.571H789.31V115.5ZM773.239 179.786H789.31V195.857H773.239V179.786ZM773.239 195.857H789.31V211.929H773.239V195.857ZM789.31 211.929H805.382V228H789.31V211.929ZM773.239 211.929H789.31V228H773.239V211.929ZM757.167 211.929H773.239V228H757.167V211.929ZM757.167 195.857H773.239V211.929H757.167V195.857ZM741.096 211.929H757.167V228H741.096V211.929ZM725.025 211.929H741.096V228H725.025V211.929ZM725.025 195.857H741.096V211.929H725.025V195.857ZM741.096 195.857H757.167V211.929H741.096V195.857ZM725.025 179.786H741.096V195.857H725.025V179.786ZM708.953 195.857H725.025V211.929H708.953V195.857ZM708.953 179.786H725.025V195.857H708.953V179.786ZM708.953 163.714H725.025V179.786H708.953V163.714ZM708.953 147.643H725.025V163.714H708.953V147.643ZM708.953 131.571H725.025V147.643H708.953V131.571ZM708.953 115.5H725.025V131.571H708.953V115.5ZM708.953 99.4286H725.025V115.5H708.953V99.4286ZM725.025 99.4286H741.096V115.5H725.025V99.4286ZM708.953 83.3571H725.025V99.4286H708.953V83.3571ZM725.025 115.5H741.096V131.571H725.025V115.5ZM725.025 131.571H741.096V147.643H725.025V131.571ZM725.025 147.643H741.096V163.714H725.025V147.643ZM725.025 163.714H741.096V179.786H725.025V163.714ZM708.953 211.929H725.025V228H708.953V211.929ZM708.953 67.2857H725.025V83.3571H708.953V67.2857Z" fill="#231F20"/>
<path d="M63 251H60.5V253.5H63V251ZM237.494 251V253.5H239.994V251H237.494ZM237.494 48V45.5H234.994V48H237.494ZM415.05 48H417.55V45.5H415.05V48ZM415.05 251H412.55V253.5H415.05V251ZM531.379 251V253.5H533.879V251H531.379ZM531.379 48V45.5H528.879V48H531.379ZM669.138 48H671.638V45.5H669.138V48ZM669.138 251H666.638V253.5H669.138V251ZM862 251V253.5H864.5V251H862ZM848.667 48C848.667 55.3638 854.636 61.3333 862 61.3333C869.364 61.3333 875.333 55.3638 875.333 48C875.333 40.6362 869.364 34.6667 862 34.6667C854.636 34.6667 848.667 40.6362 848.667 48ZM63 48H60.5V50.03H63H65.5V48H63ZM63 54.09H60.5V58.15H63H65.5V54.09H63ZM63 62.21H60.5V66.27H63H65.5V62.21H63ZM63 70.33H60.5V74.39H63H65.5V70.33H63ZM63 78.45H60.5V82.51H63H65.5V78.45H63ZM63 86.57H60.5V90.63H63H65.5V86.57H63ZM63 94.69H60.5V98.75H63H65.5V94.69H63ZM63 102.81H60.5V106.87H63H65.5V102.81H63ZM63 110.93H60.5V114.99H63H65.5V110.93H63ZM63 119.05H60.5V123.11H63H65.5V119.05H63ZM63 127.17H60.5V131.23H63H65.5V127.17H63ZM63 135.29H60.5V139.35H63H65.5V135.29H63ZM63 143.41H60.5V147.47H63H65.5V143.41H63ZM63 151.53H60.5V155.59H63H65.5V151.53H63ZM63 159.65H60.5V163.71H63H65.5V159.65H63ZM63 167.77H60.5V171.83H63H65.5V167.77H63ZM63 175.89H60.5V179.95H63H65.5V175.89H63ZM63 184.01H60.5V188.07H63H65.5V184.01H63ZM63 192.13H60.5V196.19H63H65.5V192.13H63ZM63 200.25H60.5V204.31H63H65.5V200.25H63ZM63 208.37H60.5V212.43H63H65.5V208.37H63ZM63 216.49H60.5V220.55H63H65.5V216.49H63ZM63 224.61H60.5V228.67H63H65.5V224.61H63ZM63 232.73H60.5V236.79H63H65.5V232.73H63ZM63 240.85H60.5V244.91H63H65.5V240.85H63ZM63 248.97H60.5V251H63H65.5V248.97H63ZM63 251V253.5H64.9829V251V248.5H63V251ZM68.9487 251V253.5H72.9144V251V248.5H68.9487V251ZM76.8802 251V253.5H80.846V251V248.5H76.8802V251ZM84.8118 251V253.5H88.7776V251V248.5H84.8118V251ZM92.7433 251V253.5H96.7091V251V248.5H92.7433V251ZM100.675 251V253.5H104.641V251V248.5H100.675V251ZM108.606 251V253.5H112.572V251V248.5H108.606V251ZM116.538 251V253.5H120.504V251V248.5H116.538V251ZM124.47 251V253.5H128.435V251V248.5H124.47V251ZM132.401 251V253.5H136.367V251V248.5H132.401V251ZM140.333 251V253.5H144.298V251V248.5H140.333V251ZM148.264 251V253.5H152.23V251V248.5H148.264V251ZM156.196 251V253.5H160.162V251V248.5H156.196V251ZM164.127 251V253.5H168.093V251V248.5H164.127V251ZM172.059 251V253.5H176.025V251V248.5H172.059V251ZM179.99 251V253.5H183.956V251V248.5H179.99V251ZM187.922 251V253.5H191.888V251V248.5H187.922V251ZM195.854 251V253.5H199.819V251V248.5H195.854V251ZM203.785 251V253.5H207.751V251V248.5H203.785V251ZM211.717 251V253.5H215.682V251V248.5H211.717V251ZM219.648 251V253.5H223.614V251V248.5H219.648V251ZM227.58 251V253.5H231.545V251V248.5H227.58V251ZM235.511 251V253.5H237.494V251V248.5H235.511V251ZM237.494 251H239.994V248.97H237.494H234.994V251H237.494ZM237.494 244.91H239.994V240.85H237.494H234.994V244.91H237.494ZM237.494 236.79H239.994V232.73H237.494H234.994V236.79H237.494ZM237.494 228.67H239.994V224.61H237.494H234.994V228.67H237.494ZM237.494 220.55H239.994V216.49H237.494H234.994V220.55H237.494ZM237.494 212.43H239.994V208.37H237.494H234.994V212.43H237.494ZM237.494 204.31H239.994V200.25H237.494H234.994V204.31H237.494ZM237.494 196.19H239.994V192.13H237.494H234.994V196.19H237.494ZM237.494 188.07H239.994V184.01H237.494H234.994V188.07H237.494ZM237.494 179.95H239.994V175.89H237.494H234.994V179.95H237.494ZM237.494 171.83H239.994V167.77H237.494H234.994V171.83H237.494ZM237.494 163.71H239.994V159.65H237.494H234.994V163.71H237.494ZM237.494 155.59H239.994V151.53H237.494H234.994V155.59H237.494ZM237.494 147.47H239.994V143.41H237.494H234.994V147.47H237.494ZM237.494 139.35H239.994V135.29H237.494H234.994V139.35H237.494ZM237.494 131.23H239.994V127.17H237.494H234.994V131.23H237.494ZM237.494 123.11H239.994V119.05H237.494H234.994V123.11H237.494ZM237.494 114.99H239.994V110.93H237.494H234.994V114.99H237.494ZM237.494 106.87H239.994V102.81H237.494H234.994V106.87H237.494ZM237.494 98.75H239.994V94.6901H237.494H234.994V98.75H237.494ZM237.494 90.6301H239.994V86.57H237.494H234.994V90.6301H237.494ZM237.494 82.5101H239.994V78.4501H237.494H234.994V82.5101H237.494ZM237.494 74.3901H239.994V70.3301H237.494H234.994V74.3901H237.494ZM237.494 66.2701H239.994V62.2101H237.494H234.994V66.2701H237.494ZM237.494 58.1501H239.994V54.0901H237.494H234.994V58.1501H237.494ZM237.494 50.0301H239.994V48H237.494H234.994V50.0301H237.494ZM237.494 48V50.5H239.512V48V45.5H237.494V48ZM243.547 48V50.5H247.583V48V45.5H243.547V48ZM251.618 48V50.5H255.653V48V45.5H251.618V48ZM259.689 48V50.5H263.724V48V45.5H259.689V48ZM267.759 48V50.5H271.795V48V45.5H267.759V48ZM275.83 48V50.5H279.865V48V45.5H275.83V48ZM283.901 48V50.5H287.936V48V45.5H283.901V48ZM291.972 48V50.5H296.007V48V45.5H291.972V48ZM300.042 48V50.5H304.078V48V45.5H300.042V48ZM308.113 48V50.5H312.148V48V45.5H308.113V48ZM316.184 48V50.5H320.219V48V45.5H316.184V48ZM324.254 48V50.5H328.29V48V45.5H324.254V48ZM332.325 48V50.5H336.36V48V45.5H332.325V48ZM340.396 48V50.5H344.431V48V45.5H340.396V48ZM348.466 48V50.5H352.502V48V45.5H348.466V48ZM356.537 48V50.5H360.573V48V45.5H356.537V48ZM364.608 48V50.5H368.643V48V45.5H364.608V48ZM372.679 48V50.5H376.714V48V45.5H372.679V48ZM380.749 48V50.5H384.785V48V45.5H380.749V48ZM388.82 48V50.5H392.855V48V45.5H388.82V48ZM396.891 48V50.5H400.926V48V45.5H396.891V48ZM404.961 48V50.5H408.997V48V45.5H404.961V48ZM413.032 48V50.5H415.05V48V45.5H413.032V48ZM415.05 48H412.55V50.03H415.05H417.55V48H415.05ZM415.05 54.09H412.55V58.15H415.05H417.55V54.09H415.05ZM415.05 62.21H412.55V66.27H415.05H417.55V62.21H415.05ZM415.05 70.33H412.55V74.39H415.05H417.55V70.33H415.05ZM415.05 78.45H412.55V82.51H415.05H417.55V78.45H415.05ZM415.05 86.57H412.55V90.63H415.05H417.55V86.57H415.05ZM415.05 94.69H412.55V98.75H415.05H417.55V94.69H415.05ZM415.05 102.81H412.55V106.87H415.05H417.55V102.81H415.05ZM415.05 110.93H412.55V114.99H415.05H417.55V110.93H415.05ZM415.05 119.05H412.55V123.11H415.05H417.55V119.05H415.05ZM415.05 127.17H412.55V131.23H415.05H417.55V127.17H415.05ZM415.05 135.29H412.55V139.35H415.05H417.55V135.29H415.05ZM415.05 143.41H412.55V147.47H415.05H417.55V143.41H415.05ZM415.05 151.53H412.55V155.59H415.05H417.55V151.53H415.05ZM415.05 159.65H412.55V163.71H415.05H417.55V159.65H415.05ZM415.05 167.77H412.55V171.83H415.05H417.55V167.77H415.05ZM415.05 175.89H412.55V179.95H415.05H417.55V175.89H415.05ZM415.05 184.01H412.55V188.07H415.05H417.55V184.01H415.05ZM415.05 192.13H412.55V196.19H415.05H417.55V192.13H415.05ZM415.05 200.25H412.55V204.31H415.05H417.55V200.25H415.05ZM415.05 208.37H412.55V212.43H415.05H417.55V208.37H415.05ZM415.05 216.49H412.55V220.55H415.05H417.55V216.49H415.05ZM415.05 224.61H412.55V228.67H415.05H417.55V224.61H415.05ZM415.05 232.73H412.55V236.79H415.05H417.55V232.73H415.05ZM415.05 240.85H412.55V244.91H415.05H417.55V240.85H415.05ZM415.05 248.97H412.55V251H415.05H417.55V248.97H415.05ZM415.05 251V253.5H416.989V251V248.5H415.05V251ZM420.866 251V253.5H424.744V251V248.5H420.866V251ZM428.622 251V253.5H432.499V251V248.5H428.622V251ZM436.377 251V253.5H440.255V251V248.5H436.377V251ZM444.132 251V253.5H448.01V251V248.5H444.132V251ZM451.887 251V253.5H455.765V251V248.5H451.887V251ZM459.643 251V253.5H463.52V251V248.5H459.643V251ZM467.398 251V253.5H471.276V251V248.5H467.398V251ZM475.153 251V253.5H479.031V251V248.5H475.153V251ZM482.909 251V253.5H486.786V251V248.5H482.909V251ZM490.664 251V253.5H494.542V251V248.5H490.664V251ZM498.419 251V253.5H502.297V251V248.5H498.419V251ZM506.175 251V253.5H510.052V251V248.5H506.175V251ZM513.93 251V253.5H517.808V251V248.5H513.93V251ZM521.685 251V253.5H525.563V251V248.5H521.685V251ZM529.44 251V253.5H531.379V251V248.5H529.44V251ZM531.379 251H533.879V248.97H531.379H528.879V251H531.379ZM531.379 244.91H533.879V240.85H531.379H528.879V244.91H531.379ZM531.379 236.79H533.879V232.73H531.379H528.879V236.79H531.379ZM531.379 228.67H533.879V224.61H531.379H528.879V228.67H531.379ZM531.379 220.55H533.879V216.49H531.379H528.879V220.55H531.379ZM531.379 212.43H533.879V208.37H531.379H528.879V212.43H531.379ZM531.379 204.31H533.879V200.25H531.379H528.879V204.31H531.379ZM531.379 196.19H533.879V192.13H531.379H528.879V196.19H531.379ZM531.379 188.07H533.879V184.01H531.379H528.879V188.07H531.379ZM531.379 179.95H533.879V175.89H531.379H528.879V179.95H531.379ZM531.379 171.83H533.879V167.77H531.379H528.879V171.83H531.379ZM531.379 163.71H533.879V159.65H531.379H528.879V163.71H531.379ZM531.379 155.59H533.879V151.53H531.379H528.879V155.59H531.379ZM531.379 147.47H533.879V143.41H531.379H528.879V147.47H531.379ZM531.379 139.35H533.879V135.29H531.379H528.879V139.35H531.379ZM531.379 131.23H533.879V127.17H531.379H528.879V131.23H531.379ZM531.379 123.11H533.879V119.05H531.379H528.879V123.11H531.379ZM531.379 114.99H533.879V110.93H531.379H528.879V114.99H531.379ZM531.379 106.87H533.879V102.81H531.379H528.879V106.87H531.379ZM531.379 98.75H533.879V94.6901H531.379H528.879V98.75H531.379ZM531.379 90.6301H533.879V86.57H531.379H528.879V90.6301H531.379ZM531.379 82.5101H533.879V78.4501H531.379H528.879V82.5101H531.379ZM531.379 74.3901H533.879V70.3301H531.379H528.879V74.3901H531.379ZM531.379 66.2701H533.879V62.2101H531.379H528.879V66.2701H531.379ZM531.379 58.1501H533.879V54.0901H531.379H528.879V58.1501H531.379ZM531.379 50.0301H533.879V48H531.379H528.879V50.0301H531.379ZM531.379 48V50.5H533.405V48V45.5H531.379V48ZM537.457 48V50.5H541.509V48V45.5H537.457V48ZM545.56 48V50.5H549.612V48V45.5H545.56V48ZM553.664 48V50.5H557.716V48V45.5H553.664V48ZM561.767 48V50.5H565.819V48V45.5H561.767V48ZM569.871 48V50.5H573.922V48V45.5H569.871V48ZM577.974 48V50.5H582.026V48V45.5H577.974V48ZM586.078 48V50.5H590.129V48V45.5H586.078V48ZM594.181 48V50.5H598.233V48V45.5H594.181V48ZM602.284 48V50.5H606.336V48V45.5H602.284V48ZM610.388 48V50.5H614.44V48V45.5H610.388V48ZM618.491 48V50.5H622.543V48V45.5H618.491V48ZM626.595 48V50.5H630.647V48V45.5H626.595V48ZM634.698 48V50.5H638.75V48V45.5H634.698V48ZM642.802 48V50.5H646.853V48V45.5H642.802V48ZM650.905 48V50.5H654.957V48V45.5H650.905V48ZM659.009 48V50.5H663.06V48V45.5H659.009V48ZM667.112 48V50.5H669.138V48V45.5H667.112V48ZM669.138 48H666.638V50.03H669.138H671.638V48H669.138ZM669.138 54.09H666.638V58.15H669.138H671.638V54.09H669.138ZM669.138 62.21H666.638V66.27H669.138H671.638V62.21H669.138ZM669.138 70.33H666.638V74.39H669.138H671.638V70.33H669.138ZM669.138 78.45H666.638V82.51H669.138H671.638V78.45H669.138ZM669.138 86.57H666.638V90.63H669.138H671.638V86.57H669.138ZM669.138 94.69H666.638V98.75H669.138H671.638V94.69H669.138ZM669.138 102.81H666.638V106.87H669.138H671.638V102.81H669.138ZM669.138 110.93H666.638V114.99H669.138H671.638V110.93H669.138ZM669.138 119.05H666.638V123.11H669.138H671.638V119.05H669.138ZM669.138 127.17H666.638V131.23H669.138H671.638V127.17H669.138ZM669.138 135.29H666.638V139.35H669.138H671.638V135.29H669.138ZM669.138 143.41H666.638V147.47H669.138H671.638V143.41H669.138ZM669.138 151.53H666.638V155.59H669.138H671.638V151.53H669.138ZM669.138 159.65H666.638V163.71H669.138H671.638V159.65H669.138ZM669.138 167.77H666.638V171.83H669.138H671.638V167.77H669.138ZM669.138 175.89H666.638V179.95H669.138H671.638V175.89H669.138ZM669.138 184.01H666.638V188.07H669.138H671.638V184.01H669.138ZM669.138 192.13H666.638V196.19H669.138H671.638V192.13H669.138ZM669.138 200.25H666.638V204.31H669.138H671.638V200.25H669.138ZM669.138 208.37H666.638V212.43H669.138H671.638V208.37H669.138ZM669.138 216.49H666.638V220.55H669.138H671.638V216.49H669.138ZM669.138 224.61H666.638V228.67H669.138H671.638V224.61H669.138ZM669.138 232.73H666.638V236.79H669.138H671.638V232.73H669.138ZM669.138 240.85H666.638V244.91H669.138H671.638V240.85H669.138ZM669.138 248.97H666.638V251H669.138H671.638V248.97H669.138ZM669.138 251V253.5H671.147V251V248.5H669.138V251ZM675.165 251V253.5H679.183V251V248.5H675.165V251ZM683.201 251V253.5H687.219V251V248.5H683.201V251ZM691.237 251V253.5H695.255V251V248.5H691.237V251ZM699.273 251V253.5H703.291V251V248.5H699.273V251ZM707.309 251V253.5H711.327V251V248.5H707.309V251ZM715.344 251V253.5H719.362V251V248.5H715.344V251ZM723.38 251V253.5H727.398V251V248.5H723.38V251ZM731.416 251V253.5H735.434V251V248.5H731.416V251ZM739.452 251V253.5H743.47V251V248.5H739.452V251ZM747.488 251V253.5H751.506V251V248.5H747.488V251ZM755.524 251V253.5H759.542V251V248.5H755.524V251ZM763.56 251V253.5H767.578V251V248.5H763.56V251ZM771.596 251V253.5H775.614V251V248.5H771.596V251ZM779.632 251V253.5H783.65V251V248.5H779.632V251ZM787.668 251V253.5H791.686V251V248.5H787.668V251ZM795.704 251V253.5H799.722V251V248.5H795.704V251ZM803.74 251V253.5H807.758V251V248.5H803.74V251ZM811.776 251V253.5H815.793V251V248.5H811.776V251ZM819.811 251V253.5H823.829V251V248.5H819.811V251ZM827.847 251V253.5H831.865V251V248.5H827.847V251ZM835.883 251V253.5H839.901V251V248.5H835.883V251ZM843.919 251V253.5H847.937V251V248.5H843.919V251ZM851.955 251V253.5H855.973V251V248.5H851.955V251ZM859.991 251V253.5H862V251V248.5H859.991V251ZM862 251H864.5V248.97H862H859.5V251H862ZM862 244.91H864.5V240.85H862H859.5V244.91H862ZM862 236.79H864.5V232.73H862H859.5V236.79H862ZM862 228.67H864.5V224.61H862H859.5V228.67H862ZM862 220.55H864.5V216.49H862H859.5V220.55H862ZM862 212.43H864.5V208.37H862H859.5V212.43H862ZM862 204.31H864.5V200.25H862H859.5V204.31H862ZM862 196.19H864.5V192.13H862H859.5V196.19H862ZM862 188.07H864.5V184.01H862H859.5V188.07H862ZM862 179.95H864.5V175.89H862H859.5V179.95H862ZM862 171.83H864.5V167.77H862H859.5V171.83H862ZM862 163.71H864.5V159.65H862H859.5V163.71H862ZM862 155.59H864.5V151.53H862H859.5V155.59H862ZM862 147.47H864.5V143.41H862H859.5V147.47H862ZM862 139.35H864.5V135.29H862H859.5V139.35H862ZM862 131.23H864.5V127.17H862H859.5V131.23H862ZM862 123.11H864.5V119.05H862H859.5V123.11H862ZM862 114.99H864.5V110.93H862H859.5V114.99H862ZM862 106.87H864.5V102.81H862H859.5V106.87H862ZM862 98.75H864.5V94.6901H862H859.5V98.75H862ZM862 90.6301H864.5V86.57H862H859.5V90.6301H862ZM862 82.5101H864.5V78.4501H862H859.5V82.5101H862ZM862 74.3901H864.5V70.3301H862H859.5V74.3901H862ZM862 66.2701H864.5V62.2101H862H859.5V66.2701H862ZM862 58.1501H864.5V54.0901H862H859.5V58.1501H862ZM862 50.0301H864.5V48H862H859.5V50.0301H862ZM63 251H60.5V253.5H63V251ZM237.494 251V253.5H239.994V251H237.494ZM237.494 48V45.5H234.994V48H237.494ZM415.05 48H417.55V45.5H415.05V48ZM415.05 251H412.55V253.5H415.05V251ZM531.379 251V253.5H533.879V251H531.379ZM531.379 48V45.5H528.879V48H531.379ZM669.138 48H671.638V45.5H669.138V48ZM669.138 251H666.638V253.5H669.138V251ZM862 251V253.5H864.5V251H862ZM848.667 48C848.667 55.3638 854.636 61.3333 862 61.3333C869.364 61.3333 875.333 55.3638 875.333 48C875.333 40.6362 869.364 34.6667 862 34.6667C854.636 34.6667 848.667 40.6362 848.667 48ZM63 48H60.5V50.03H63H65.5V48H63ZM63 54.09H60.5V58.15H63H65.5V54.09H63ZM63 62.21H60.5V66.27H63H65.5V62.21H63ZM63 70.33H60.5V74.39H63H65.5V70.33H63ZM63 78.45H60.5V82.51H63H65.5V78.45H63ZM63 86.57H60.5V90.63H63H65.5V86.57H63ZM63 94.69H60.5V98.75H63H65.5V94.69H63ZM63 102.81H60.5V106.87H63H65.5V102.81H63ZM63 110.93H60.5V114.99H63H65.5V110.93H63ZM63 119.05H60.5V123.11H63H65.5V119.05H63ZM63 127.17H60.5V131.23H63H65.5V127.17H63ZM63 135.29H60.5V139.35H63H65.5V135.29H63ZM63 143.41H60.5V147.47H63H65.5V143.41H63ZM63 151.53H60.5V155.59H63H65.5V151.53H63ZM63 159.65H60.5V163.71H63H65.5V159.65H63ZM63 167.77H60.5V171.83H63H65.5V167.77H63ZM63 175.89H60.5V179.95H63H65.5V175.89H63ZM63 184.01H60.5V188.07H63H65.5V184.01H63ZM63 192.13H60.5V196.19H63H65.5V192.13H63ZM63 200.25H60.5V204.31H63H65.5V200.25H63ZM63 208.37H60.5V212.43H63H65.5V208.37H63ZM63 216.49H60.5V220.55H63H65.5V216.49H63ZM63 224.61H60.5V228.67H63H65.5V224.61H63ZM63 232.73H60.5V236.79H63H65.5V232.73H63ZM63 240.85H60.5V244.91H63H65.5V240.85H63ZM63 248.97H60.5V251H63H65.5V248.97H63ZM63 251V253.5H64.9829V251V248.5H63V251ZM68.9487 251V253.5H72.9144V251V248.5H68.9487V251ZM76.8802 251V253.5H80.846V251V248.5H76.8802V251ZM84.8118 251V253.5H88.7776V251V248.5H84.8118V251ZM92.7433 251V253.5H96.7091V251V248.5H92.7433V251ZM100.675 251V253.5H104.641V251V248.5H100.675V251ZM108.606 251V253.5H112.572V251V248.5H108.606V251ZM116.538 251V253.5H120.504V251V248.5H116.538V251ZM124.47 251V253.5H128.435V251V248.5H124.47V251ZM132.401 251V253.5H136.367V251V248.5H132.401V251ZM140.333 251V253.5H144.298V251V248.5H140.333V251ZM148.264 251V253.5H152.23V251V248.5H148.264V251ZM156.196 251V253.5H160.162V251V248.5H156.196V251ZM164.127 251V253.5H168.093V251V248.5H164.127V251ZM172.059 251V253.5H176.025V251V248.5H172.059V251ZM179.99 251V253.5H183.956V251V248.5H179.99V251ZM187.922 251V253.5H191.888V251V248.5H187.922V251ZM195.854 251V253.5H199.819V251V248.5H195.854V251ZM203.785 251V253.5H207.751V251V248.5H203.785V251ZM211.717 251V253.5H215.682V251V248.5H211.717V251ZM219.648 251V253.5H223.614V251V248.5H219.648V251ZM227.58 251V253.5H231.545V251V248.5H227.58V251ZM235.511 251V253.5H237.494V251V248.5H235.511V251ZM237.494 251H239.994V248.97H237.494H234.994V251H237.494ZM237.494 244.91H239.994V240.85H237.494H234.994V244.91H237.494ZM237.494 236.79H239.994V232.73H237.494H234.994V236.79H237.494ZM237.494 228.67H239.994V224.61H237.494H234.994V228.67H237.494ZM237.494 220.55H239.994V216.49H237.494H234.994V220.55H237.494ZM237.494 212.43H239.994V208.37H237.494H234.994V212.43H237.494ZM237.494 204.31H239.994V200.25H237.494H234.994V204.31H237.494ZM237.494 196.19H239.994V192.13H237.494H234.994V196.19H237.494ZM237.494 188.07H239.994V184.01H237.494H234.994V188.07H237.494ZM237.494 179.95H239.994V175.89H237.494H234.994V179.95H237.494ZM237.494 171.83H239.994V167.77H237.494H234.994V171.83H237.494ZM237.494 163.71H239.994V159.65H237.494H234.994V163.71H237.494ZM237.494 155.59H239.994V151.53H237.494H234.994V155.59H237.494ZM237.494 147.47H239.994V143.41H237.494H234.994V147.47H237.494ZM237.494 139.35H239.994V135.29H237.494H234.994V139.35H237.494ZM237.494 131.23H239.994V127.17H237.494H234.994V131.23H237.494ZM237.494 123.11H239.994V119.05H237.494H234.994V123.11H237.494ZM237.494 114.99H239.994V110.93H237.494H234.994V114.99H237.494ZM237.494 106.87H239.994V102.81H237.494H234.994V106.87H237.494ZM237.494 98.75H239.994V94.6901H237.494H234.994V98.75H237.494ZM237.494 90.6301H239.994V86.57H237.494H234.994V90.6301H237.494ZM237.494 82.5101H239.994V78.4501H237.494H234.994V82.5101H237.494ZM237.494 74.3901H239.994V70.3301H237.494H234.994V74.3901H237.494ZM237.494 66.2701H239.994V62.2101H237.494H234.994V66.2701H237.494ZM237.494 58.1501H239.994V54.0901H237.494H234.994V58.1501H237.494ZM237.494 50.0301H239.994V48H237.494H234.994V50.0301H237.494ZM237.494 48V50.5H239.512V48V45.5H237.494V48ZM243.547 48V50.5H247.583V48V45.5H243.547V48ZM251.618 48V50.5H255.653V48V45.5H251.618V48ZM259.689 48V50.5H263.724V48V45.5H259.689V48ZM267.759 48V50.5H271.795V48V45.5H267.759V48ZM275.83 48V50.5H279.865V48V45.5H275.83V48ZM283.901 48V50.5H287.936V48V45.5H283.901V48ZM291.972 48V50.5H296.007V48V45.5H291.972V48ZM300.042 48V50.5H304.078V48V45.5H300.042V48ZM308.113 48V50.5H312.148V48V45.5H308.113V48ZM316.184 48V50.5H320.219V48V45.5H316.184V48ZM324.254 48V50.5H328.29V48V45.5H324.254V48ZM332.325 48V50.5H336.36V48V45.5H332.325V48ZM340.396 48V50.5H344.431V48V45.5H340.396V48ZM348.466 48V50.5H352.502V48V45.5H348.466V48ZM356.537 48V50.5H360.573V48V45.5H356.537V48ZM364.608 48V50.5H368.643V48V45.5H364.608V48ZM372.679 48V50.5H376.714V48V45.5H372.679V48ZM380.749 48V50.5H384.785V48V45.5H380.749V48ZM388.82 48V50.5H392.855V48V45.5H388.82V48ZM396.891 48V50.5H400.926V48V45.5H396.891V48ZM404.961 48V50.5H408.997V48V45.5H404.961V48ZM413.032 48V50.5H415.05V48V45.5H413.032V48ZM415.05 48H412.55V50.03H415.05H417.55V48H415.05ZM415.05 54.09H412.55V58.15H415.05H417.55V54.09H415.05ZM415.05 62.21H412.55V66.27H415.05H417.55V62.21H415.05ZM415.05 70.33H412.55V74.39H415.05H417.55V70.33H415.05ZM415.05 78.45H412.55V82.51H415.05H417.55V78.45H415.05ZM415.05 86.57H412.55V90.63H415.05H417.55V86.57H415.05ZM415.05 94.69H412.55V98.75H415.05H417.55V94.69H415.05ZM415.05 102.81H412.55V106.87H415.05H417.55V102.81H415.05ZM415.05 110.93H412.55V114.99H415.05H417.55V110.93H415.05ZM415.05 119.05H412.55V123.11H415.05H417.55V119.05H415.05ZM415.05 127.17H412.55V131.23H415.05H417.55V127.17H415.05ZM415.05 135.29H412.55V139.35H415.05H417.55V135.29H415.05ZM415.05 143.41H412.55V147.47H415.05H417.55V143.41H415.05ZM415.05 151.53H412.55V155.59H415.05H417.55V151.53H415.05ZM415.05 159.65H412.55V163.71H415.05H417.55V159.65H415.05ZM415.05 167.77H412.55V171.83H415.05H417.55V167.77H415.05ZM415.05 175.89H412.55V179.95H415.05H417.55V175.89H415.05ZM415.05 184.01H412.55V188.07H415.05H417.55V184.01H415.05ZM415.05 192.13H412.55V196.19H415.05H417.55V192.13H415.05ZM415.05 200.25H412.55V204.31H415.05H417.55V200.25H415.05ZM415.05 208.37H412.55V212.43H415.05H417.55V208.37H415.05ZM415.05 216.49H412.55V220.55H415.05H417.55V216.49H415.05ZM415.05 224.61H412.55V228.67H415.05H417.55V224.61H415.05ZM415.05 232.73H412.55V236.79H415.05H417.55V232.73H415.05ZM415.05 240.85H412.55V244.91H415.05H417.55V240.85H415.05ZM415.05 248.97H412.55V251H415.05H417.55V248.97H415.05ZM415.05 251V253.5H416.989V251V248.5H415.05V251ZM420.866 251V253.5H424.744V251V248.5H420.866V251ZM428.622 251V253.5H432.499V251V248.5H428.622V251ZM436.377 251V253.5H440.255V251V248.5H436.377V251ZM444.132 251V253.5H448.01V251V248.5H444.132V251ZM451.887 251V253.5H455.765V251V248.5H451.887V251ZM459.643 251V253.5H463.52V251V248.5H459.643V251ZM467.398 251V253.5H471.276V251V248.5H467.398V251ZM475.153 251V253.5H479.031V251V248.5H475.153V251ZM482.909 251V253.5H486.786V251V248.5H482.909V251ZM490.664 251V253.5H494.542V251V248.5H490.664V251ZM498.419 251V253.5H502.297V251V248.5H498.419V251ZM506.175 251V253.5H510.052V251V248.5H506.175V251ZM513.93 251V253.5H517.808V251V248.5H513.93V251ZM521.685 251V253.5H525.563V251V248.5H521.685V251ZM529.44 251V253.5H531.379V251V248.5H529.44V251ZM531.379 251H533.879V248.97H531.379H528.879V251H531.379ZM531.379 244.91H533.879V240.85H531.379H528.879V244.91H531.379ZM531.379 236.79H533.879V232.73H531.379H528.879V236.79H531.379ZM531.379 228.67H533.879V224.61H531.379H528.879V228.67H531.379ZM531.379 220.55H533.879V216.49H531.379H528.879V220.55H531.379ZM531.379 212.43H533.879V208.37H531.379H528.879V212.43H531.379ZM531.379 204.31H533.879V200.25H531.379H528.879V204.31H531.379ZM531.379 196.19H533.879V192.13H531.379H528.879V196.19H531.379ZM531.379 188.07H533.879V184.01H531.379H528.879V188.07H531.379ZM531.379 179.95H533.879V175.89H531.379H528.879V179.95H531.379ZM531.379 171.83H533.879V167.77H531.379H528.879V171.83H531.379ZM531.379 163.71H533.879V159.65H531.379H528.879V163.71H531.379ZM531.379 155.59H533.879V151.53H531.379H528.879V155.59H531.379ZM531.379 147.47H533.879V143.41H531.379H528.879V147.47H531.379ZM531.379 139.35H533.879V135.29H531.379H528.879V139.35H531.379ZM531.379 131.23H533.879V127.17H531.379H528.879V131.23H531.379ZM531.379 123.11H533.879V119.05H531.379H528.879V123.11H531.379ZM531.379 114.99H533.879V110.93H531.379H528.879V114.99H531.379ZM531.379 106.87H533.879V102.81H531.379H528.879V106.87H531.379ZM531.379 98.75H533.879V94.6901H531.379H528.879V98.75H531.379ZM531.379 90.6301H533.879V86.57H531.379H528.879V90.6301H531.379ZM531.379 82.5101H533.879V78.4501H531.379H528.879V82.5101H531.379ZM531.379 74.3901H533.879V70.3301H531.379H528.879V74.3901H531.379ZM531.379 66.2701H533.879V62.2101H531.379H528.879V66.2701H531.379ZM531.379 58.1501H533.879V54.0901H531.379H528.879V58.1501H531.379ZM531.379 50.0301H533.879V48H531.379H528.879V50.0301H531.379ZM531.379 48V50.5H533.405V48V45.5H531.379V48ZM537.457 48V50.5H541.509V48V45.5H537.457V48ZM545.56 48V50.5H549.612V48V45.5H545.56V48ZM553.664 48V50.5H557.716V48V45.5H553.664V48ZM561.767 48V50.5H565.819V48V45.5H561.767V48ZM569.871 48V50.5H573.922V48V45.5H569.871V48ZM577.974 48V50.5H582.026V48V45.5H577.974V48ZM586.078 48V50.5H590.129V48V45.5H586.078V48ZM594.181 48V50.5H598.233V48V45.5H594.181V48ZM602.284 48V50.5H606.336V48V45.5H602.284V48ZM610.388 48V50.5H614.44V48V45.5H610.388V48ZM618.491 48V50.5H622.543V48V45.5H618.491V48ZM626.595 48V50.5H630.647V48V45.5H626.595V48ZM634.698 48V50.5H638.75V48V45.5H634.698V48ZM642.802 48V50.5H646.853V48V45.5H642.802V48ZM650.905 48V50.5H654.957V48V45.5H650.905V48ZM659.009 48V50.5H663.06V48V45.5H659.009V48ZM667.112 48V50.5H669.138V48V45.5H667.112V48ZM669.138 48H666.638V50.03H669.138H671.638V48H669.138ZM669.138 54.09H666.638V58.15H669.138H671.638V54.09H669.138ZM669.138 62.21H666.638V66.27H669.138H671.638V62.21H669.138ZM669.138 70.33H666.638V74.39H669.138H671.638V70.33H669.138ZM669.138 78.45H666.638V82.51H669.138H671.638V78.45H669.138ZM669.138 86.57H666.638V90.63H669.138H671.638V86.57H669.138ZM669.138 94.69H666.638V98.75H669.138H671.638V94.69H669.138ZM669.138 102.81H666.638V106.87H669.138H671.638V102.81H669.138ZM669.138 110.93H666.638V114.99H669.138H671.638V110.93H669.138ZM669.138 119.05H666.638V123.11H669.138H671.638V119.05H669.138ZM669.138 127.17H666.638V131.23H669.138H671.638V127.17H669.138ZM669.138 135.29H666.638V139.35H669.138H671.638V135.29H669.138ZM669.138 143.41H666.638V147.47H669.138H671.638V143.41H669.138ZM669.138 151.53H666.638V155.59H669.138H671.638V151.53H669.138ZM669.138 159.65H666.638V163.71H669.138H671.638V159.65H669.138ZM669.138 167.77H666.638V171.83H669.138H671.638V167.77H669.138ZM669.138 175.89H666.638V179.95H669.138H671.638V175.89H669.138ZM669.138 184.01H666.638V188.07H669.138H671.638V184.01H669.138ZM669.138 192.13H666.638V196.19H669.138H671.638V192.13H669.138ZM669.138 200.25H666.638V204.31H669.138H671.638V200.25H669.138ZM669.138 208.37H666.638V212.43H669.138H671.638V208.37H669.138ZM669.138 216.49H666.638V220.55H669.138H671.638V216.49H669.138ZM669.138 224.61H666.638V228.67H669.138H671.638V224.61H669.138ZM669.138 232.73H666.638V236.79H669.138H671.638V232.73H669.138ZM669.138 240.85H666.638V244.91H669.138H671.638V240.85H669.138ZM669.138 248.97H666.638V251H669.138H671.638V248.97H669.138ZM669.138 251V253.5H671.147V251V248.5H669.138V251ZM675.165 251V253.5H679.183V251V248.5H675.165V251ZM683.201 251V253.5H687.219V251V248.5H683.201V251ZM691.237 251V253.5H695.255V251V248.5H691.237V251ZM699.273 251V253.5H703.291V251V248.5H699.273V251ZM707.309 251V253.5H711.327V251V248.5H707.309V251ZM715.344 251V253.5H719.362V251V248.5H715.344V251ZM723.38 251V253.5H727.398V251V248.5H723.38V251ZM731.416 251V253.5H735.434V251V248.5H731.416V251ZM739.452 251V253.5H743.47V251V248.5H739.452V251ZM747.488 251V253.5H751.506V251V248.5H747.488V251ZM755.524 251V253.5H759.542V251V248.5H755.524V251ZM763.56 251V253.5H767.578V251V248.5H763.56V251ZM771.596 251V253.5H775.614V251V248.5H771.596V251ZM779.632 251V253.5H783.65V251V248.5H779.632V251ZM787.668 251V253.5H791.686V251V248.5H787.668V251ZM795.704 251V253.5H799.722V251V248.5H795.704V251ZM803.74 251V253.5H807.758V251V248.5H803.74V251ZM811.776 251V253.5H815.793V251V248.5H811.776V251ZM819.811 251V253.5H823.829V251V248.5H819.811V251ZM827.847 251V253.5H831.865V251V248.5H827.847V251ZM835.883 251V253.5H839.901V251V248.5H835.883V251ZM843.919 251V253.5H847.937V251V248.5H843.919V251ZM851.955 251V253.5H855.973V251V248.5H851.955V251ZM859.991 251V253.5H862V251V248.5H859.991V251ZM862 251H864.5V248.97H862H859.5V251H862ZM862 244.91H864.5V240.85H862H859.5V244.91H862ZM862 236.79H864.5V232.73H862H859.5V236.79H862ZM862 228.67H864.5V224.61H862H859.5V228.67H862ZM862 220.55H864.5V216.49H862H859.5V220.55H862ZM862 212.43H864.5V208.37H862H859.5V212.43H862ZM862 204.31H864.5V200.25H862H859.5V204.31H862ZM862 196.19H864.5V192.13H862H859.5V196.19H862ZM862 188.07H864.5V184.01H862H859.5V188.07H862ZM862 179.95H864.5V175.89H862H859.5V179.95H862ZM862 171.83H864.5V167.77H862H859.5V171.83H862ZM862 163.71H864.5V159.65H862H859.5V163.71H862ZM862 155.59H864.5V151.53H862H859.5V155.59H862ZM862 147.47H864.5V143.41H862H859.5V147.47H862ZM862 139.35H864.5V135.29H862H859.5V139.35H862ZM862 131.23H864.5V127.17H862H859.5V131.23H862ZM862 123.11H864.5V119.05H862H859.5V123.11H862ZM862 114.99H864.5V110.93H862H859.5V114.99H862ZM862 106.87H864.5V102.81H862H859.5V106.87H862ZM862 98.75H864.5V94.6901H862H859.5V98.75H862ZM862 90.6301H864.5V86.57H862H859.5V90.6301H862ZM862 82.5101H864.5V78.4501H862H859.5V82.5101H862ZM862 74.3901H864.5V70.3301H862H859.5V74.3901H862ZM862 66.2701H864.5V62.2101H862H859.5V66.2701H862ZM862 58.1501H864.5V54.0901H862H859.5V58.1501H862ZM862 50.0301H864.5V48H862H859.5V50.0301H862Z" fill="#ECF360"/>
<rect x="60" y="20" width="180" height="32" fill="#ECF360"/>
<path d="M886 36.2727H890.545V40.8182H886V36.2727ZM886 40.8182H890.545V45.3636H886V40.8182ZM886 45.3636H890.545V49.9091H886V45.3636ZM886 49.9091H890.545V54.4545H886V49.9091ZM886 54.4545H890.545V59H886V54.4545ZM904.082 54.4545H908.627V59H904.082V54.4545ZM904.082 49.9091H908.627V54.4545H904.082V49.9091ZM904.082 45.3636H908.627V49.9091H904.082V45.3636ZM904.082 40.8182H908.627V45.3636H904.082V40.8182ZM908.627 36.2727H913.173V40.8182H908.627V36.2727ZM913.173 40.8182H917.718V45.3636H913.173V40.8182ZM913.173 45.3636H917.718V49.9091H913.173V45.3636ZM913.173 49.9091H917.718V54.4545H913.173V49.9091ZM913.173 54.4545H917.718V59H913.173V54.4545ZM904.082 36.2727H908.627V40.8182H904.082V36.2727Z" fill="black"/>
<path d="M76.0909 25.2727H80.6364V29.8182H76.0909V25.2727ZM71.5455 25.2727H76.0909V29.8182H71.5455V25.2727ZM67 29.8182H71.5455V34.3636H67V29.8182ZM67 34.3636H71.5455V38.9091H67V34.3636ZM71.5455 34.3636H76.0909V38.9091H71.5455V34.3636ZM76.0909 34.3636H80.6364V38.9091H76.0909V34.3636ZM76.0909 38.9091H80.6364V43.4545H76.0909V38.9091ZM76.0909 43.4545H80.6364V48H76.0909V43.4545ZM71.5455 43.4545H76.0909V48H71.5455V43.4545ZM67 43.4545H71.5455V48H67V43.4545ZM67 25.2727H71.5455V29.8182H67V25.2727ZM94.1641 25.2727H98.7095V29.8182H94.1641V25.2727ZM98.7095 25.2727H103.255V29.8182H98.7095V25.2727ZM103.255 25.2727H107.8V29.8182H103.255V25.2727ZM103.255 29.8182H107.8V34.3636H103.255V29.8182ZM103.255 34.3636H107.8V38.9091H103.255V34.3636ZM103.255 38.9091H107.8V43.4545H103.255V38.9091ZM103.255 43.4545H107.8V48H103.255V43.4545ZM98.7095 43.4545H103.255V48H98.7095V43.4545ZM94.1641 43.4545H98.7095V48H94.1641V43.4545ZM94.1641 38.9091H98.7095V43.4545H94.1641V38.9091ZM94.1641 34.3636H98.7095V38.9091H94.1641V34.3636ZM94.1641 29.8182H98.7095V34.3636H94.1641V29.8182ZM125.874 25.2727H130.419V29.8182H125.874V25.2727ZM121.328 25.2727H125.874V29.8182H121.328V25.2727ZM121.328 29.8182H125.874V34.3636H121.328V29.8182ZM121.328 34.3636H125.874V38.9091H121.328V34.3636ZM121.328 38.9091H125.874V43.4545H121.328V38.9091ZM121.328 43.4545H125.874V48H121.328V43.4545ZM125.874 43.4545H130.419V48H125.874V43.4545ZM143.951 25.2727H148.497V29.8182H143.951V25.2727ZM143.951 29.8182H148.497V34.3636H143.951V29.8182ZM143.951 34.3636H148.497V38.9091H143.951V34.3636ZM143.951 38.9091H148.497V43.4545H143.951V38.9091ZM143.951 43.4545H148.497V48H143.951V43.4545ZM162.033 25.2727H166.579V29.8182H162.033V25.2727ZM162.033 29.8182H166.579V34.3636H162.033V29.8182ZM162.033 34.3636H166.579V38.9091H162.033V34.3636ZM162.033 38.9091H166.579V43.4545H162.033V38.9091ZM162.033 43.4545H166.579V48H162.033V43.4545ZM166.579 25.2727H171.124V29.8182H166.579V25.2727ZM166.579 43.4545H171.124V48H166.579V43.4545ZM166.579 34.3636H171.124V38.9091H166.579V34.3636ZM171.124 25.2727H175.67V29.8182H171.124V25.2727ZM171.124 43.4545H175.67V48H171.124V43.4545ZM189.197 25.2727H193.743V29.8182H189.197V25.2727ZM193.743 25.2727H198.288V29.8182H193.743V25.2727ZM198.288 25.2727H202.834V29.8182H198.288V25.2727ZM193.743 29.8182H198.288V34.3636H193.743V29.8182ZM193.743 34.3636H198.288V38.9091H193.743V34.3636ZM193.743 38.9091H198.288V43.4545H193.743V38.9091ZM193.743 43.4545H198.288V48H193.743V43.4545ZM216.361 25.2727H220.907V29.8182H216.361V25.2727ZM216.361 29.8182H220.907V34.3636H216.361V29.8182ZM216.361 34.3636H220.907V38.9091H216.361V34.3636ZM220.907 38.9091H225.452V43.4545H220.907V38.9091ZM220.907 43.4545H225.452V48H220.907V43.4545ZM225.452 25.2727H229.998V29.8182H225.452V25.2727ZM225.452 29.8182H229.998V34.3636H225.452V29.8182ZM225.452 34.3636H229.998V38.9091H225.452V34.3636Z" fill="black"/>
<path d="M167.45 318V300.5H174.575C175.525 300.5 176.383 300.742 177.15 301.225C177.933 301.692 178.558 302.333 179.025 303.15C179.492 303.967 179.725 304.875 179.725 305.875C179.725 306.875 179.492 307.783 179.025 308.6C178.558 309.417 177.933 310.075 177.15 310.575C176.383 311.058 175.525 311.3 174.575 311.3H170.15V318H167.45ZM170.15 308.7H174.525C174.975 308.7 175.383 308.575 175.75 308.325C176.117 308.058 176.408 307.717 176.625 307.3C176.858 306.867 176.975 306.392 176.975 305.875C176.975 305.358 176.858 304.892 176.625 304.475C176.408 304.058 176.117 303.725 175.75 303.475C175.383 303.225 174.975 303.1 174.525 303.1H170.15V308.7ZM188.301 318.25C187.017 318.25 185.867 317.958 184.851 317.375C183.851 316.775 183.059 315.967 182.476 314.95C181.892 313.917 181.601 312.742 181.601 311.425C181.601 310.108 181.892 308.942 182.476 307.925C183.059 306.892 183.851 306.083 184.851 305.5C185.867 304.9 187.017 304.6 188.301 304.6C189.567 304.6 190.701 304.9 191.701 305.5C192.717 306.083 193.517 306.892 194.101 307.925C194.684 308.942 194.976 310.108 194.976 311.425C194.976 312.742 194.684 313.917 194.101 314.95C193.517 315.967 192.717 316.775 191.701 317.375C190.701 317.958 189.567 318.25 188.301 318.25ZM188.301 315.9C189.084 315.9 189.784 315.708 190.401 315.325C191.017 314.925 191.501 314.392 191.851 313.725C192.201 313.042 192.367 312.275 192.351 311.425C192.367 310.558 192.201 309.792 191.851 309.125C191.501 308.442 191.017 307.908 190.401 307.525C189.784 307.142 189.084 306.95 188.301 306.95C187.517 306.95 186.809 307.15 186.176 307.55C185.559 307.933 185.076 308.467 184.726 309.15C184.376 309.817 184.209 310.575 184.226 311.425C184.209 312.275 184.376 313.042 184.726 313.725C185.076 314.392 185.559 314.925 186.176 315.325C186.809 315.708 187.517 315.9 188.301 315.9ZM197.831 318V299.5H200.406V318H197.831ZM204.481 318V304.875H207.056V318H204.481ZM205.731 301.975C205.181 301.975 204.756 301.833 204.456 301.55C204.156 301.267 204.006 300.867 204.006 300.35C204.006 299.867 204.156 299.475 204.456 299.175C204.773 298.875 205.198 298.725 205.731 298.725C206.281 298.725 206.706 298.867 207.006 299.15C207.306 299.433 207.456 299.833 207.456 300.35C207.456 300.833 207.298 301.225 206.981 301.525C206.681 301.825 206.264 301.975 205.731 301.975ZM216.589 318.25C215.372 318.25 214.281 317.95 213.314 317.35C212.364 316.75 211.606 315.933 211.039 314.9C210.489 313.867 210.214 312.708 210.214 311.425C210.214 310.142 210.489 308.983 211.039 307.95C211.606 306.917 212.364 306.1 213.314 305.5C214.281 304.9 215.372 304.6 216.589 304.6C217.756 304.6 218.814 304.842 219.764 305.325C220.731 305.792 221.464 306.433 221.964 307.25L220.539 309C220.272 308.617 219.931 308.267 219.514 307.95C219.097 307.633 218.656 307.383 218.189 307.2C217.722 307.017 217.272 306.925 216.839 306.925C216.039 306.925 215.322 307.125 214.689 307.525C214.072 307.908 213.581 308.442 213.214 309.125C212.847 309.808 212.664 310.575 212.664 311.425C212.664 312.275 212.856 313.042 213.239 313.725C213.622 314.392 214.131 314.925 214.764 315.325C215.397 315.725 216.097 315.925 216.864 315.925C217.314 315.925 217.747 315.85 218.164 315.7C218.597 315.55 219.014 315.325 219.414 315.025C219.814 314.725 220.189 314.358 220.539 313.925L221.964 315.675C221.431 316.425 220.664 317.042 219.664 317.525C218.681 318.008 217.656 318.25 216.589 318.25ZM226.227 323.75L228.877 317.625L228.902 319.675L222.352 304.875H225.352L229.452 314.525C229.535 314.692 229.635 314.95 229.752 315.3C229.868 315.633 229.968 315.967 230.052 316.3L229.402 316.45C229.535 316.1 229.66 315.75 229.777 315.4C229.91 315.05 230.035 314.7 230.152 314.35L233.577 304.875H236.627L231.227 318L229.002 323.75H226.227ZM244.885 312.125V309.875H257.41V312.125H244.885ZM249.81 316.95V304.875H252.435V316.95H249.81ZM271.312 318V303.1H266.412V300.5H279.062V303.1H274.012V318H271.312ZM285.376 318.25C284.026 318.25 282.826 317.967 281.776 317.4C280.743 316.817 279.926 316.025 279.326 315.025C278.743 314.025 278.451 312.875 278.451 311.575C278.451 310.542 278.618 309.6 278.951 308.75C279.285 307.9 279.743 307.167 280.326 306.55C280.926 305.917 281.635 305.433 282.451 305.1C283.285 304.75 284.185 304.575 285.151 304.575C286.001 304.575 286.793 304.742 287.526 305.075C288.26 305.392 288.893 305.833 289.426 306.4C289.976 306.967 290.393 307.642 290.676 308.425C290.976 309.192 291.118 310.033 291.101 310.95L291.076 312.05H280.351L279.776 310H288.851L288.476 310.425V309.825C288.426 309.275 288.243 308.783 287.926 308.35C287.61 307.917 287.21 307.575 286.726 307.325C286.243 307.075 285.718 306.95 285.151 306.95C284.251 306.95 283.493 307.125 282.876 307.475C282.26 307.808 281.793 308.308 281.476 308.975C281.16 309.625 281.001 310.433 281.001 311.4C281.001 312.317 281.193 313.117 281.576 313.8C281.96 314.467 282.501 314.983 283.201 315.35C283.901 315.717 284.71 315.9 285.626 315.9C286.276 315.9 286.876 315.792 287.426 315.575C287.993 315.358 288.601 314.967 289.251 314.4L290.551 316.225C290.151 316.625 289.66 316.975 289.076 317.275C288.51 317.575 287.901 317.817 287.251 318C286.618 318.167 285.993 318.25 285.376 318.25ZM299.475 318.25C298.258 318.25 297.166 317.95 296.2 317.35C295.25 316.75 294.491 315.933 293.925 314.9C293.375 313.867 293.1 312.708 293.1 311.425C293.1 310.142 293.375 308.983 293.925 307.95C294.491 306.917 295.25 306.1 296.2 305.5C297.166 304.9 298.258 304.6 299.475 304.6C300.641 304.6 301.7 304.842 302.65 305.325C303.616 305.792 304.35 306.433 304.85 307.25L303.425 309C303.158 308.617 302.816 308.267 302.4 307.95C301.983 307.633 301.541 307.383 301.075 307.2C300.608 307.017 300.158 306.925 299.725 306.925C298.925 306.925 298.208 307.125 297.575 307.525C296.958 307.908 296.466 308.442 296.1 309.125C295.733 309.808 295.55 310.575 295.55 311.425C295.55 312.275 295.741 313.042 296.125 313.725C296.508 314.392 297.016 314.925 297.65 315.325C298.283 315.725 298.983 315.925 299.75 315.925C300.2 315.925 300.633 315.85 301.05 315.7C301.483 315.55 301.9 315.325 302.3 315.025C302.7 314.725 303.075 314.358 303.425 313.925L304.85 315.675C304.316 316.425 303.55 317.042 302.55 317.525C301.566 318.008 300.541 318.25 299.475 318.25ZM307.279 318V299.5H309.854V307.575L309.404 307.875C309.57 307.292 309.895 306.758 310.379 306.275C310.862 305.775 311.437 305.375 312.104 305.075C312.77 304.758 313.454 304.6 314.154 304.6C315.154 304.6 315.987 304.8 316.654 305.2C317.32 305.583 317.82 306.175 318.154 306.975C318.487 307.775 318.654 308.783 318.654 310V318H316.079V310.175C316.079 309.425 315.979 308.808 315.779 308.325C315.579 307.825 315.27 307.467 314.854 307.25C314.437 307.017 313.92 306.917 313.304 306.95C312.804 306.95 312.345 307.033 311.929 307.2C311.512 307.35 311.145 307.567 310.829 307.85C310.529 308.133 310.287 308.467 310.104 308.85C309.937 309.217 309.854 309.617 309.854 310.05V318H308.579C308.362 318 308.145 318 307.929 318C307.712 318 307.495 318 307.279 318ZM322.147 318V304.875H324.722V307.575L324.272 307.875C324.438 307.292 324.763 306.758 325.247 306.275C325.73 305.775 326.305 305.375 326.972 305.075C327.638 304.758 328.322 304.6 329.022 304.6C330.022 304.6 330.855 304.8 331.522 305.2C332.188 305.583 332.688 306.175 333.022 306.975C333.355 307.775 333.522 308.783 333.522 310V318H330.947V310.175C330.947 309.425 330.847 308.808 330.647 308.325C330.447 307.825 330.138 307.467 329.722 307.25C329.305 307.017 328.788 306.917 328.172 306.95C327.672 306.95 327.213 307.033 326.797 307.2C326.38 307.35 326.013 307.567 325.697 307.85C325.397 308.133 325.155 308.467 324.972 308.85C324.805 309.217 324.722 309.617 324.722 310.05V318H323.447C323.23 318 323.013 318 322.797 318C322.58 318 322.363 318 322.147 318ZM342.915 318.25C341.632 318.25 340.482 317.958 339.465 317.375C338.465 316.775 337.673 315.967 337.09 314.95C336.507 313.917 336.215 312.742 336.215 311.425C336.215 310.108 336.507 308.942 337.09 307.925C337.673 306.892 338.465 306.083 339.465 305.5C340.482 304.9 341.632 304.6 342.915 304.6C344.182 304.6 345.315 304.9 346.315 305.5C347.332 306.083 348.132 306.892 348.715 307.925C349.298 308.942 349.59 310.108 349.59 311.425C349.59 312.742 349.298 313.917 348.715 314.95C348.132 315.967 347.332 316.775 346.315 317.375C345.315 317.958 344.182 318.25 342.915 318.25ZM342.915 315.9C343.698 315.9 344.398 315.708 345.015 315.325C345.632 314.925 346.115 314.392 346.465 313.725C346.815 313.042 346.982 312.275 346.965 311.425C346.982 310.558 346.815 309.792 346.465 309.125C346.115 308.442 345.632 307.908 345.015 307.525C344.398 307.142 343.698 306.95 342.915 306.95C342.132 306.95 341.423 307.15 340.79 307.55C340.173 307.933 339.69 308.467 339.34 309.15C338.99 309.817 338.823 310.575 338.84 311.425C338.823 312.275 338.99 313.042 339.34 313.725C339.69 314.392 340.173 314.925 340.79 315.325C341.423 315.708 342.132 315.9 342.915 315.9ZM352.446 318V299.5H355.021V318H352.446ZM364.326 318.25C363.043 318.25 361.893 317.958 360.876 317.375C359.876 316.775 359.084 315.967 358.501 314.95C357.918 313.917 357.626 312.742 357.626 311.425C357.626 310.108 357.918 308.942 358.501 307.925C359.084 306.892 359.876 306.083 360.876 305.5C361.893 304.9 363.043 304.6 364.326 304.6C365.593 304.6 366.726 304.9 367.726 305.5C368.743 306.083 369.543 306.892 370.126 307.925C370.709 308.942 371.001 310.108 371.001 311.425C371.001 312.742 370.709 313.917 370.126 314.95C369.543 315.967 368.743 316.775 367.726 317.375C366.726 317.958 365.593 318.25 364.326 318.25ZM364.326 315.9C365.109 315.9 365.809 315.708 366.426 315.325C367.043 314.925 367.526 314.392 367.876 313.725C368.226 313.042 368.393 312.275 368.376 311.425C368.393 310.558 368.226 309.792 367.876 309.125C367.526 308.442 367.043 307.908 366.426 307.525C365.809 307.142 365.109 306.95 364.326 306.95C363.543 306.95 362.834 307.15 362.201 307.55C361.584 307.933 361.101 308.467 360.751 309.15C360.401 309.817 360.234 310.575 360.251 311.425C360.234 312.275 360.401 313.042 360.751 313.725C361.101 314.392 361.584 314.925 362.201 315.325C362.834 315.708 363.543 315.9 364.326 315.9ZM379.682 323.75C378.749 323.75 377.815 323.6 376.882 323.3C375.965 323.017 375.224 322.642 374.657 322.175L375.607 320.175C375.94 320.425 376.332 320.642 376.782 320.825C377.232 321.025 377.707 321.175 378.207 321.275C378.707 321.392 379.199 321.45 379.682 321.45C380.599 321.45 381.365 321.3 381.982 321C382.599 320.7 383.065 320.258 383.382 319.675C383.699 319.092 383.857 318.367 383.857 317.5V314.975L384.132 315.15C384.049 315.667 383.774 316.167 383.307 316.65C382.857 317.117 382.29 317.5 381.607 317.8C380.924 318.1 380.224 318.25 379.507 318.25C378.257 318.25 377.14 317.958 376.157 317.375C375.19 316.775 374.424 315.967 373.857 314.95C373.29 313.917 373.007 312.742 373.007 311.425C373.007 310.108 373.282 308.942 373.832 307.925C374.399 306.892 375.165 306.083 376.132 305.5C377.115 304.9 378.215 304.6 379.432 304.6C379.932 304.6 380.415 304.667 380.882 304.8C381.349 304.917 381.782 305.092 382.182 305.325C382.582 305.542 382.94 305.783 383.257 306.05C383.574 306.317 383.832 306.6 384.032 306.9C384.232 307.2 384.357 307.483 384.407 307.75L383.857 307.95V304.875H386.432V317.2C386.432 318.25 386.274 319.175 385.957 319.975C385.657 320.792 385.215 321.475 384.632 322.025C384.049 322.592 383.34 323.017 382.507 323.3C381.674 323.6 380.732 323.75 379.682 323.75ZM379.782 315.875C380.599 315.875 381.324 315.683 381.957 315.3C382.59 314.917 383.082 314.392 383.432 313.725C383.782 313.058 383.957 312.292 383.957 311.425C383.957 310.558 383.774 309.792 383.407 309.125C383.057 308.442 382.565 307.908 381.932 307.525C381.315 307.142 380.599 306.95 379.782 306.95C378.982 306.95 378.265 307.15 377.632 307.55C377.015 307.933 376.524 308.467 376.157 309.15C375.807 309.817 375.632 310.575 375.632 311.425C375.632 312.275 375.807 313.042 376.157 313.725C376.524 314.392 377.015 314.917 377.632 315.3C378.265 315.683 378.982 315.875 379.782 315.875ZM392.242 323.75L394.892 317.625L394.917 319.675L388.367 304.875H391.367L395.467 314.525C395.551 314.692 395.651 314.95 395.767 315.3C395.884 315.633 395.984 315.967 396.067 316.3L395.417 316.45C395.551 316.1 395.676 315.75 395.792 315.4C395.926 315.05 396.051 314.7 396.167 314.35L399.592 304.875H402.642L397.242 318L395.017 323.75H392.242ZM413 318V303.4C413 302.65 413.167 301.983 413.5 301.4C413.834 300.817 414.292 300.358 414.875 300.025C415.459 299.692 416.134 299.525 416.9 299.525C417.434 299.525 417.934 299.625 418.4 299.825C418.867 300.025 419.242 300.292 419.525 300.625L418.65 302.6C418.434 302.4 418.192 302.242 417.925 302.125C417.675 301.992 417.434 301.925 417.2 301.925C416.85 301.925 416.55 301.983 416.3 302.1C416.067 302.2 415.892 302.367 415.775 302.6C415.659 302.817 415.6 303.083 415.6 303.4V318H414.3C414.084 318 413.867 318 413.65 318C413.434 318 413.217 318 413 318ZM410.9 307.475V305.1H418.7V307.475H410.9ZM426.802 318.25C425.518 318.25 424.368 317.958 423.352 317.375C422.352 316.775 421.56 315.967 420.977 314.95C420.393 313.917 420.102 312.742 420.102 311.425C420.102 310.108 420.393 308.942 420.977 307.925C421.56 306.892 422.352 306.083 423.352 305.5C424.368 304.9 425.518 304.6 426.802 304.6C428.068 304.6 429.202 304.9 430.202 305.5C431.218 306.083 432.018 306.892 432.602 307.925C433.185 308.942 433.477 310.108 433.477 311.425C433.477 312.742 433.185 313.917 432.602 314.95C432.018 315.967 431.218 316.775 430.202 317.375C429.202 317.958 428.068 318.25 426.802 318.25ZM426.802 315.9C427.585 315.9 428.285 315.708 428.902 315.325C429.518 314.925 430.002 314.392 430.352 313.725C430.702 313.042 430.868 312.275 430.852 311.425C430.868 310.558 430.702 309.792 430.352 309.125C430.002 308.442 429.518 307.908 428.902 307.525C428.285 307.142 427.585 306.95 426.802 306.95C426.018 306.95 425.31 307.15 424.677 307.55C424.06 307.933 423.577 308.467 423.227 309.15C422.877 309.817 422.71 310.575 422.727 311.425C422.71 312.275 422.877 313.042 423.227 313.725C423.577 314.392 424.06 314.925 424.677 315.325C425.31 315.708 426.018 315.9 426.802 315.9ZM436.282 318V304.875H438.882V309L438.632 308C438.816 307.367 439.124 306.792 439.557 306.275C440.007 305.758 440.516 305.35 441.082 305.05C441.666 304.75 442.266 304.6 442.882 304.6C443.166 304.6 443.432 304.625 443.682 304.675C443.949 304.725 444.157 304.783 444.307 304.85L443.632 307.65C443.432 307.567 443.207 307.5 442.957 307.45C442.724 307.383 442.491 307.35 442.257 307.35C441.807 307.35 441.374 307.442 440.957 307.625C440.557 307.792 440.199 308.033 439.882 308.35C439.582 308.65 439.341 309.008 439.157 309.425C438.974 309.825 438.882 310.267 438.882 310.75V318H436.282ZM459.422 318.25C458.472 318.25 457.589 318.125 456.772 317.875C455.972 317.625 455.239 317.25 454.572 316.75C453.922 316.233 453.339 315.6 452.822 314.85L454.672 312.725C455.489 313.892 456.272 314.7 457.022 315.15C457.772 315.6 458.664 315.825 459.697 315.825C460.331 315.825 460.906 315.725 461.422 315.525C461.939 315.325 462.347 315.05 462.647 314.7C462.947 314.35 463.097 313.95 463.097 313.5C463.097 313.2 463.047 312.917 462.947 312.65C462.847 312.383 462.689 312.142 462.472 311.925C462.272 311.708 462.006 311.508 461.672 311.325C461.356 311.142 460.981 310.983 460.547 310.85C460.114 310.7 459.614 310.575 459.047 310.475C458.147 310.292 457.364 310.05 456.697 309.75C456.031 309.45 455.472 309.075 455.022 308.625C454.572 308.175 454.239 307.667 454.022 307.1C453.806 306.517 453.697 305.867 453.697 305.15C453.697 304.45 453.847 303.8 454.147 303.2C454.464 302.6 454.889 302.083 455.422 301.65C455.972 301.2 456.614 300.858 457.347 300.625C458.081 300.375 458.872 300.25 459.722 300.25C460.622 300.25 461.447 300.367 462.197 300.6C462.947 300.833 463.614 301.183 464.197 301.65C464.781 302.1 465.264 302.658 465.647 303.325L463.747 305.2C463.414 304.65 463.039 304.192 462.622 303.825C462.206 303.442 461.747 303.158 461.247 302.975C460.747 302.775 460.214 302.675 459.647 302.675C458.997 302.675 458.431 302.775 457.947 302.975C457.464 303.175 457.081 303.458 456.797 303.825C456.531 304.175 456.397 304.592 456.397 305.075C456.397 305.425 456.464 305.75 456.597 306.05C456.731 306.333 456.931 306.592 457.197 306.825C457.481 307.042 457.856 307.242 458.322 307.425C458.789 307.592 459.347 307.742 459.997 307.875C460.914 308.075 461.731 308.333 462.447 308.65C463.164 308.95 463.772 309.308 464.272 309.725C464.772 310.142 465.147 310.608 465.397 311.125C465.664 311.642 465.797 312.2 465.797 312.8C465.797 313.917 465.539 314.883 465.022 315.7C464.506 316.517 463.772 317.15 462.822 317.6C461.872 318.033 460.739 318.25 459.422 318.25ZM468.923 318V304.875H471.523V307.675L471.048 307.975C471.181 307.542 471.39 307.125 471.673 306.725C471.973 306.325 472.331 305.975 472.748 305.675C473.181 305.358 473.64 305.108 474.123 304.925C474.623 304.742 475.131 304.65 475.648 304.65C476.398 304.65 477.056 304.775 477.623 305.025C478.19 305.275 478.656 305.65 479.023 306.15C479.39 306.65 479.656 307.275 479.823 308.025L479.423 307.925L479.598 307.5C479.781 307.117 480.031 306.758 480.348 306.425C480.681 306.075 481.056 305.767 481.473 305.5C481.89 305.233 482.331 305.025 482.798 304.875C483.265 304.725 483.723 304.65 484.173 304.65C485.156 304.65 485.965 304.85 486.598 305.25C487.248 305.65 487.731 306.258 488.048 307.075C488.381 307.892 488.548 308.908 488.548 310.125V318H485.948V310.275C485.948 309.525 485.848 308.917 485.648 308.45C485.465 307.967 485.181 307.608 484.798 307.375C484.415 307.142 483.923 307.025 483.323 307.025C482.856 307.025 482.415 307.108 481.998 307.275C481.598 307.425 481.248 307.642 480.948 307.925C480.648 308.208 480.415 308.542 480.248 308.925C480.081 309.292 479.998 309.7 479.998 310.15V318H477.398V310.225C477.398 309.542 477.298 308.967 477.098 308.5C476.898 308.017 476.606 307.65 476.223 307.4C475.84 307.15 475.373 307.025 474.823 307.025C474.356 307.025 473.923 307.108 473.523 307.275C473.123 307.425 472.773 307.642 472.473 307.925C472.173 308.192 471.94 308.517 471.773 308.9C471.606 309.267 471.523 309.667 471.523 310.1V318H468.923ZM497.045 318.25C495.962 318.25 494.97 317.95 494.07 317.35C493.187 316.75 492.479 315.933 491.945 314.9C491.412 313.867 491.145 312.7 491.145 311.4C491.145 310.083 491.412 308.917 491.945 307.9C492.495 306.867 493.229 306.058 494.145 305.475C495.079 304.892 496.12 304.6 497.27 304.6C497.954 304.6 498.579 304.7 499.145 304.9C499.712 305.1 500.204 305.383 500.62 305.75C501.054 306.1 501.404 306.508 501.67 306.975C501.954 307.442 502.129 307.942 502.195 308.475L501.62 308.275V304.875H504.22V318H501.62V314.875L502.22 314.7C502.12 315.15 501.912 315.592 501.595 316.025C501.295 316.442 500.904 316.817 500.42 317.15C499.954 317.483 499.429 317.75 498.845 317.95C498.279 318.15 497.679 318.25 497.045 318.25ZM497.72 315.875C498.504 315.875 499.195 315.683 499.795 315.3C500.395 314.917 500.862 314.392 501.195 313.725C501.545 313.042 501.72 312.267 501.72 311.4C501.72 310.55 501.545 309.792 501.195 309.125C500.862 308.458 500.395 307.933 499.795 307.55C499.195 307.167 498.504 306.975 497.72 306.975C496.954 306.975 496.27 307.167 495.67 307.55C495.087 307.933 494.62 308.458 494.27 309.125C493.937 309.792 493.77 310.55 493.77 311.4C493.77 312.267 493.937 313.042 494.27 313.725C494.62 314.392 495.087 314.917 495.67 315.3C496.27 315.683 496.954 315.875 497.72 315.875ZM507.816 318V304.875H510.416V309L510.166 308C510.349 307.367 510.657 306.792 511.091 306.275C511.541 305.758 512.049 305.35 512.616 305.05C513.199 304.75 513.799 304.6 514.416 304.6C514.699 304.6 514.966 304.625 515.216 304.675C515.482 304.725 515.691 304.783 515.841 304.85L515.166 307.65C514.966 307.567 514.741 307.5 514.491 307.45C514.257 307.383 514.024 307.35 513.791 307.35C513.341 307.35 512.907 307.442 512.491 307.625C512.091 307.792 511.732 308.033 511.416 308.35C511.116 308.65 510.874 309.008 510.691 309.425C510.507 309.825 510.416 310.267 510.416 310.75V318H507.816ZM520.012 318V301.525H522.587V318H520.012ZM517.287 307.375V304.875H525.637V307.375H517.287ZM533.985 318.25C532.635 318.25 531.435 317.967 530.385 317.4C529.351 316.817 528.535 316.025 527.935 315.025C527.351 314.025 527.06 312.875 527.06 311.575C527.06 310.542 527.226 309.6 527.56 308.75C527.893 307.9 528.351 307.167 528.935 306.55C529.535 305.917 530.243 305.433 531.06 305.1C531.893 304.75 532.793 304.575 533.76 304.575C534.61 304.575 535.401 304.742 536.135 305.075C536.868 305.392 537.501 305.833 538.035 306.4C538.585 306.967 539.001 307.642 539.285 308.425C539.585 309.192 539.726 310.033 539.71 310.95L539.685 312.05H528.96L528.385 310H537.46L537.085 310.425V309.825C537.035 309.275 536.851 308.783 536.535 308.35C536.218 307.917 535.818 307.575 535.335 307.325C534.851 307.075 534.326 306.95 533.76 306.95C532.86 306.95 532.101 307.125 531.485 307.475C530.868 307.808 530.401 308.308 530.085 308.975C529.768 309.625 529.61 310.433 529.61 311.4C529.61 312.317 529.801 313.117 530.185 313.8C530.568 314.467 531.11 314.983 531.81 315.35C532.51 315.717 533.318 315.9 534.235 315.9C534.885 315.9 535.485 315.792 536.035 315.575C536.601 315.358 537.21 314.967 537.86 314.4L539.16 316.225C538.76 316.625 538.268 316.975 537.685 317.275C537.118 317.575 536.51 317.817 535.86 318C535.226 318.167 534.601 318.25 533.985 318.25ZM542.508 318V304.875H545.108V309L544.858 308C545.041 307.367 545.35 306.792 545.783 306.275C546.233 305.758 546.741 305.35 547.308 305.05C547.891 304.75 548.491 304.6 549.108 304.6C549.391 304.6 549.658 304.625 549.908 304.675C550.175 304.725 550.383 304.783 550.533 304.85L549.858 307.65C549.658 307.567 549.433 307.5 549.183 307.45C548.95 307.383 548.716 307.35 548.483 307.35C548.033 307.35 547.6 307.442 547.183 307.625C546.783 307.792 546.425 308.033 546.108 308.35C545.808 308.65 545.566 309.008 545.383 309.425C545.2 309.825 545.108 310.267 545.108 310.75V318H542.508ZM551.233 322.475L550.283 321.325C550.867 320.992 551.342 320.608 551.708 320.175C552.075 319.742 552.258 319.367 552.258 319.05C552.258 318.883 552.217 318.717 552.133 318.55C552.05 318.4 551.875 318.183 551.608 317.9C551.275 317.583 551.058 317.317 550.958 317.1C550.858 316.883 550.808 316.65 550.808 316.4C550.808 316 550.95 315.683 551.233 315.45C551.517 315.2 551.883 315.075 552.333 315.075C552.75 315.075 553.125 315.2 553.458 315.45C553.808 315.683 554.075 316.017 554.258 316.45C554.458 316.867 554.558 317.35 554.558 317.9C554.558 318.4 554.475 318.883 554.308 319.35C554.142 319.817 553.908 320.25 553.608 320.65C553.308 321.05 552.958 321.408 552.558 321.725C552.158 322.042 551.717 322.292 551.233 322.475ZM570.555 318.25C569.605 318.25 568.722 318.125 567.905 317.875C567.105 317.625 566.372 317.25 565.705 316.75C565.055 316.233 564.472 315.6 563.955 314.85L565.805 312.725C566.622 313.892 567.405 314.7 568.155 315.15C568.905 315.6 569.797 315.825 570.83 315.825C571.463 315.825 572.038 315.725 572.555 315.525C573.072 315.325 573.48 315.05 573.78 314.7C574.08 314.35 574.23 313.95 574.23 313.5C574.23 313.2 574.18 312.917 574.08 312.65C573.98 312.383 573.822 312.142 573.605 311.925C573.405 311.708 573.138 311.508 572.805 311.325C572.488 311.142 572.113 310.983 571.68 310.85C571.247 310.7 570.747 310.575 570.18 310.475C569.28 310.292 568.497 310.05 567.83 309.75C567.163 309.45 566.605 309.075 566.155 308.625C565.705 308.175 565.372 307.667 565.155 307.1C564.938 306.517 564.83 305.867 564.83 305.15C564.83 304.45 564.98 303.8 565.28 303.2C565.597 302.6 566.022 302.083 566.555 301.65C567.105 301.2 567.747 300.858 568.48 300.625C569.213 300.375 570.005 300.25 570.855 300.25C571.755 300.25 572.58 300.367 573.33 300.6C574.08 300.833 574.747 301.183 575.33 301.65C575.913 302.1 576.397 302.658 576.78 303.325L574.88 305.2C574.547 304.65 574.172 304.192 573.755 303.825C573.338 303.442 572.88 303.158 572.38 302.975C571.88 302.775 571.347 302.675 570.78 302.675C570.13 302.675 569.563 302.775 569.08 302.975C568.597 303.175 568.213 303.458 567.93 303.825C567.663 304.175 567.53 304.592 567.53 305.075C567.53 305.425 567.597 305.75 567.73 306.05C567.863 306.333 568.063 306.592 568.33 306.825C568.613 307.042 568.988 307.242 569.455 307.425C569.922 307.592 570.48 307.742 571.13 307.875C572.047 308.075 572.863 308.333 573.58 308.65C574.297 308.95 574.905 309.308 575.405 309.725C575.905 310.142 576.28 310.608 576.53 311.125C576.797 311.642 576.93 312.2 576.93 312.8C576.93 313.917 576.672 314.883 576.155 315.7C575.638 316.517 574.905 317.15 573.955 317.6C573.005 318.033 571.872 318.25 570.555 318.25ZM584.706 318.25C583.772 318.25 582.956 318.033 582.256 317.6C581.572 317.167 581.039 316.558 580.656 315.775C580.289 314.992 580.106 314.058 580.106 312.975V304.875H582.681V312.275C582.681 313.042 582.797 313.708 583.031 314.275C583.281 314.825 583.631 315.25 584.081 315.55C584.547 315.85 585.106 316 585.756 316C586.239 316 586.681 315.925 587.081 315.775C587.481 315.608 587.822 315.383 588.106 315.1C588.406 314.817 588.639 314.475 588.806 314.075C588.972 313.675 589.056 313.242 589.056 312.775V304.875H591.631V318H589.056V315.25L589.506 314.95C589.306 315.567 588.964 316.125 588.481 316.625C588.014 317.125 587.456 317.525 586.806 317.825C586.156 318.108 585.456 318.25 584.706 318.25ZM599.617 318.25C598.517 318.25 597.526 318.058 596.642 317.675C595.759 317.292 595.026 316.725 594.442 315.975L596.192 314.475C596.692 315.058 597.234 315.483 597.817 315.75C598.417 316 599.092 316.125 599.842 316.125C600.142 316.125 600.417 316.092 600.667 316.025C600.934 315.942 601.159 315.825 601.342 315.675C601.542 315.525 601.692 315.35 601.792 315.15C601.892 314.933 601.942 314.7 601.942 314.45C601.942 314.017 601.784 313.667 601.467 313.4C601.301 313.283 601.034 313.158 600.667 313.025C600.317 312.875 599.859 312.725 599.292 312.575C598.326 312.325 597.534 312.042 596.917 311.725C596.301 311.408 595.826 311.05 595.492 310.65C595.242 310.333 595.059 309.992 594.942 309.625C594.826 309.242 594.767 308.825 594.767 308.375C594.767 307.825 594.884 307.325 595.117 306.875C595.367 306.408 595.701 306.008 596.117 305.675C596.551 305.325 597.051 305.058 597.617 304.875C598.201 304.692 598.817 304.6 599.467 304.6C600.084 304.6 600.692 304.683 601.292 304.85C601.909 305.017 602.476 305.258 602.992 305.575C603.509 305.892 603.942 306.267 604.292 306.7L602.817 308.325C602.501 308.008 602.151 307.733 601.767 307.5C601.401 307.25 601.026 307.058 600.642 306.925C600.259 306.792 599.909 306.725 599.592 306.725C599.242 306.725 598.926 306.758 598.642 306.825C598.359 306.892 598.117 306.992 597.917 307.125C597.734 307.258 597.592 307.425 597.492 307.625C597.392 307.825 597.342 308.05 597.342 308.3C597.359 308.517 597.409 308.725 597.492 308.925C597.592 309.108 597.726 309.267 597.892 309.4C598.076 309.533 598.351 309.675 598.717 309.825C599.084 309.975 599.551 310.117 600.117 310.25C600.951 310.467 601.634 310.708 602.167 310.975C602.717 311.225 603.151 311.517 603.467 311.85C603.801 312.167 604.034 312.533 604.167 312.95C604.301 313.367 604.367 313.833 604.367 314.35C604.367 315.1 604.151 315.775 603.717 316.375C603.301 316.958 602.734 317.417 602.017 317.75C601.301 318.083 600.501 318.25 599.617 318.25ZM608.83 318V301.525H611.405V318H608.83ZM606.105 307.375V304.875H614.455V307.375H606.105ZM621.728 318.25C620.645 318.25 619.653 317.95 618.753 317.35C617.87 316.75 617.161 315.933 616.628 314.9C616.095 313.867 615.828 312.7 615.828 311.4C615.828 310.083 616.095 308.917 616.628 307.9C617.178 306.867 617.911 306.058 618.828 305.475C619.761 304.892 620.803 304.6 621.953 304.6C622.636 304.6 623.261 304.7 623.828 304.9C624.395 305.1 624.886 305.383 625.303 305.75C625.736 306.1 626.086 306.508 626.353 306.975C626.636 307.442 626.811 307.942 626.878 308.475L626.303 308.275V304.875H628.903V318H626.303V314.875L626.903 314.7C626.803 315.15 626.595 315.592 626.278 316.025C625.978 316.442 625.586 316.817 625.103 317.15C624.636 317.483 624.111 317.75 623.528 317.95C622.961 318.15 622.361 318.25 621.728 318.25ZM622.403 315.875C623.186 315.875 623.878 315.683 624.478 315.3C625.078 314.917 625.545 314.392 625.878 313.725C626.228 313.042 626.403 312.267 626.403 311.4C626.403 310.55 626.228 309.792 625.878 309.125C625.545 308.458 625.078 307.933 624.478 307.55C623.878 307.167 623.186 306.975 622.403 306.975C621.636 306.975 620.953 307.167 620.353 307.55C619.77 307.933 619.303 308.458 618.953 309.125C618.62 309.792 618.453 310.55 618.453 311.4C618.453 312.267 618.62 313.042 618.953 313.725C619.303 314.392 619.77 314.917 620.353 315.3C620.953 315.683 621.636 315.875 622.403 315.875ZM632.923 318V304.875H635.498V318H632.923ZM634.173 301.975C633.623 301.975 633.198 301.833 632.898 301.55C632.598 301.267 632.448 300.867 632.448 300.35C632.448 299.867 632.598 299.475 632.898 299.175C633.215 298.875 633.64 298.725 634.173 298.725C634.723 298.725 635.148 298.867 635.448 299.15C635.748 299.433 635.898 299.833 635.898 300.35C635.898 300.833 635.74 301.225 635.423 301.525C635.123 301.825 634.707 301.975 634.173 301.975ZM639.456 318V304.875H642.031V307.575L641.581 307.875C641.748 307.292 642.073 306.758 642.556 306.275C643.04 305.775 643.615 305.375 644.281 305.075C644.948 304.758 645.631 304.6 646.331 304.6C647.331 304.6 648.165 304.8 648.831 305.2C649.498 305.583 649.998 306.175 650.331 306.975C650.665 307.775 650.831 308.783 650.831 310V318H648.256V310.175C648.256 309.425 648.156 308.808 647.956 308.325C647.756 307.825 647.448 307.467 647.031 307.25C646.615 307.017 646.098 306.917 645.481 306.95C644.981 306.95 644.523 307.033 644.106 307.2C643.69 307.35 643.323 307.567 643.006 307.85C642.706 308.133 642.465 308.467 642.281 308.85C642.115 309.217 642.031 309.617 642.031 310.05V318H640.756C640.54 318 640.323 318 640.106 318C639.89 318 639.673 318 639.456 318ZM659.374 318.25C658.291 318.25 657.299 317.95 656.399 317.35C655.516 316.75 654.808 315.933 654.274 314.9C653.741 313.867 653.474 312.7 653.474 311.4C653.474 310.083 653.741 308.917 654.274 307.9C654.824 306.867 655.558 306.058 656.474 305.475C657.408 304.892 658.449 304.6 659.599 304.6C660.283 304.6 660.908 304.7 661.474 304.9C662.041 305.1 662.533 305.383 662.949 305.75C663.383 306.1 663.733 306.508 663.999 306.975C664.283 307.442 664.458 307.942 664.524 308.475L663.949 308.275V304.875H666.549V318H663.949V314.875L664.549 314.7C664.449 315.15 664.241 315.592 663.924 316.025C663.624 316.442 663.233 316.817 662.749 317.15C662.283 317.483 661.758 317.75 661.174 317.95C660.608 318.15 660.008 318.25 659.374 318.25ZM660.049 315.875C660.833 315.875 661.524 315.683 662.124 315.3C662.724 314.917 663.191 314.392 663.524 313.725C663.874 313.042 664.049 312.267 664.049 311.4C664.049 310.55 663.874 309.792 663.524 309.125C663.191 308.458 662.724 307.933 662.124 307.55C661.524 307.167 660.833 306.975 660.049 306.975C659.283 306.975 658.599 307.167 657.999 307.55C657.416 307.933 656.949 308.458 656.599 309.125C656.266 309.792 656.099 310.55 656.099 311.4C656.099 312.267 656.266 313.042 656.599 313.725C656.949 314.392 657.416 314.917 657.999 315.3C658.599 315.683 659.283 315.875 660.049 315.875ZM677.045 318.25C676.478 318.25 675.911 318.158 675.345 317.975C674.795 317.792 674.286 317.55 673.82 317.25C673.37 316.933 672.986 316.592 672.67 316.225C672.37 315.842 672.17 315.458 672.07 315.075L672.72 314.725V317.925H670.145V299.5H672.72V307.875L672.32 307.65C672.403 307.267 672.586 306.9 672.87 306.55C673.153 306.183 673.511 305.858 673.945 305.575C674.395 305.275 674.878 305.042 675.395 304.875C675.911 304.692 676.436 304.6 676.97 304.6C678.153 304.6 679.203 304.892 680.12 305.475C681.036 306.058 681.761 306.867 682.295 307.9C682.828 308.917 683.095 310.083 683.095 311.4C683.095 312.717 682.828 313.892 682.295 314.925C681.778 315.958 681.061 316.775 680.145 317.375C679.228 317.958 678.195 318.25 677.045 318.25ZM676.62 315.9C677.386 315.9 678.07 315.708 678.67 315.325C679.27 314.925 679.745 314.392 680.095 313.725C680.445 313.042 680.62 312.267 680.62 311.4C680.62 310.55 680.445 309.792 680.095 309.125C679.761 308.442 679.295 307.908 678.695 307.525C678.095 307.142 677.403 306.95 676.62 306.95C675.836 306.95 675.145 307.142 674.545 307.525C673.945 307.908 673.47 308.442 673.12 309.125C672.77 309.792 672.595 310.55 672.595 311.4C672.595 312.267 672.77 313.042 673.12 313.725C673.47 314.392 673.945 314.925 674.545 315.325C675.145 315.708 675.836 315.9 676.62 315.9ZM685.942 318V299.5H688.517V318H685.942ZM698.047 318.25C696.697 318.25 695.497 317.967 694.447 317.4C693.414 316.817 692.597 316.025 691.997 315.025C691.414 314.025 691.122 312.875 691.122 311.575C691.122 310.542 691.289 309.6 691.622 308.75C691.955 307.9 692.414 307.167 692.997 306.55C693.597 305.917 694.305 305.433 695.122 305.1C695.955 304.75 696.855 304.575 697.822 304.575C698.672 304.575 699.464 304.742 700.197 305.075C700.93 305.392 701.564 305.833 702.097 306.4C702.647 306.967 703.064 307.642 703.347 308.425C703.647 309.192 703.789 310.033 703.772 310.95L703.747 312.05H693.022L692.447 310H701.522L701.147 310.425V309.825C701.097 309.275 700.914 308.783 700.597 308.35C700.28 307.917 699.88 307.575 699.397 307.325C698.914 307.075 698.389 306.95 697.822 306.95C696.922 306.95 696.164 307.125 695.547 307.475C694.93 307.808 694.464 308.308 694.147 308.975C693.83 309.625 693.672 310.433 693.672 311.4C693.672 312.317 693.864 313.117 694.247 313.8C694.63 314.467 695.172 314.983 695.872 315.35C696.572 315.717 697.38 315.9 698.297 315.9C698.947 315.9 699.547 315.792 700.097 315.575C700.664 315.358 701.272 314.967 701.922 314.4L703.222 316.225C702.822 316.625 702.33 316.975 701.747 317.275C701.18 317.575 700.572 317.817 699.922 318C699.289 318.167 698.664 318.25 698.047 318.25ZM721.327 318.25C720.111 318.25 718.994 318.033 717.977 317.6C716.961 317.167 716.077 316.55 715.327 315.75C714.577 314.933 713.994 313.975 713.577 312.875C713.177 311.775 712.977 310.567 712.977 309.25C712.977 308 713.194 306.842 713.627 305.775C714.077 304.692 714.694 303.742 715.477 302.925C716.261 302.108 717.169 301.475 718.202 301.025C719.236 300.575 720.352 300.35 721.552 300.35C722.402 300.35 723.227 300.483 724.027 300.75C724.844 301 725.577 301.358 726.227 301.825C726.894 302.275 727.436 302.792 727.852 303.375L726.052 305.25C725.569 304.767 725.077 304.367 724.577 304.05C724.094 303.717 723.594 303.467 723.077 303.3C722.577 303.133 722.069 303.05 721.552 303.05C720.736 303.05 719.969 303.208 719.252 303.525C718.552 303.825 717.936 304.25 717.402 304.8C716.886 305.35 716.477 306.008 716.177 306.775C715.877 307.525 715.727 308.35 715.727 309.25C715.727 310.2 715.869 311.067 716.152 311.85C716.452 312.617 716.869 313.275 717.402 313.825C717.936 314.375 718.569 314.8 719.302 315.1C720.052 315.383 720.877 315.525 721.777 315.525C722.327 315.525 722.869 315.45 723.402 315.3C723.936 315.15 724.436 314.933 724.902 314.65C725.369 314.367 725.794 314.033 726.177 313.65L727.527 315.85C727.144 316.3 726.619 316.708 725.952 317.075C725.302 317.442 724.569 317.733 723.752 317.95C722.952 318.15 722.144 318.25 721.327 318.25ZM730.97 318V304.875H733.545V318H730.97ZM732.22 301.975C731.67 301.975 731.245 301.833 730.945 301.55C730.645 301.267 730.495 300.867 730.495 300.35C730.495 299.867 730.645 299.475 730.945 299.175C731.262 298.875 731.687 298.725 732.22 298.725C732.77 298.725 733.195 298.867 733.495 299.15C733.795 299.433 733.945 299.833 733.945 300.35C733.945 300.833 733.787 301.225 733.47 301.525C733.17 301.825 732.753 301.975 732.22 301.975ZM739.128 318V301.525H741.703V318H739.128ZM736.403 307.375V304.875H744.753V307.375H736.403ZM747.523 318V304.875H750.098V318H747.523ZM748.773 301.975C748.223 301.975 747.798 301.833 747.498 301.55C747.198 301.267 747.048 300.867 747.048 300.35C747.048 299.867 747.198 299.475 747.498 299.175C747.815 298.875 748.24 298.725 748.773 298.725C749.323 298.725 749.748 298.867 750.048 299.15C750.348 299.433 750.498 299.833 750.498 300.35C750.498 300.833 750.34 301.225 750.023 301.525C749.723 301.825 749.306 301.975 748.773 301.975ZM760.181 318.25C758.831 318.25 757.631 317.967 756.581 317.4C755.548 316.817 754.731 316.025 754.131 315.025C753.548 314.025 753.256 312.875 753.256 311.575C753.256 310.542 753.423 309.6 753.756 308.75C754.089 307.9 754.548 307.167 755.131 306.55C755.731 305.917 756.439 305.433 757.256 305.1C758.089 304.75 758.989 304.575 759.956 304.575C760.806 304.575 761.598 304.742 762.331 305.075C763.064 305.392 763.698 305.833 764.231 306.4C764.781 306.967 765.198 307.642 765.481 308.425C765.781 309.192 765.923 310.033 765.906 310.95L765.881 312.05H755.156L754.581 310H763.656L763.281 310.425V309.825C763.231 309.275 763.048 308.783 762.731 308.35C762.414 307.917 762.014 307.575 761.531 307.325C761.048 307.075 760.523 306.95 759.956 306.95C759.056 306.95 758.298 307.125 757.681 307.475C757.064 307.808 756.598 308.308 756.281 308.975C755.964 309.625 755.806 310.433 755.806 311.4C755.806 312.317 755.998 313.117 756.381 313.8C756.764 314.467 757.306 314.983 758.006 315.35C758.706 315.717 759.514 315.9 760.431 315.9C761.081 315.9 761.681 315.792 762.231 315.575C762.798 315.358 763.406 314.967 764.056 314.4L765.356 316.225C764.956 316.625 764.464 316.975 763.881 317.275C763.314 317.575 762.706 317.817 762.056 318C761.423 318.167 760.798 318.25 760.181 318.25ZM773.079 318.25C771.979 318.25 770.988 318.058 770.104 317.675C769.221 317.292 768.488 316.725 767.904 315.975L769.654 314.475C770.154 315.058 770.696 315.483 771.279 315.75C771.879 316 772.554 316.125 773.304 316.125C773.604 316.125 773.879 316.092 774.129 316.025C774.396 315.942 774.621 315.825 774.804 315.675C775.004 315.525 775.154 315.35 775.254 315.15C775.354 314.933 775.404 314.7 775.404 314.45C775.404 314.017 775.246 313.667 774.929 313.4C774.763 313.283 774.496 313.158 774.129 313.025C773.779 312.875 773.321 312.725 772.754 312.575C771.788 312.325 770.996 312.042 770.379 311.725C769.763 311.408 769.288 311.05 768.954 310.65C768.704 310.333 768.521 309.992 768.404 309.625C768.288 309.242 768.229 308.825 768.229 308.375C768.229 307.825 768.346 307.325 768.579 306.875C768.829 306.408 769.163 306.008 769.579 305.675C770.013 305.325 770.513 305.058 771.079 304.875C771.663 304.692 772.279 304.6 772.929 304.6C773.546 304.6 774.154 304.683 774.754 304.85C775.371 305.017 775.938 305.258 776.454 305.575C776.971 305.892 777.404 306.267 777.754 306.7L776.279 308.325C775.963 308.008 775.613 307.733 775.229 307.5C774.863 307.25 774.488 307.058 774.104 306.925C773.721 306.792 773.371 306.725 773.054 306.725C772.704 306.725 772.388 306.758 772.104 306.825C771.821 306.892 771.579 306.992 771.379 307.125C771.196 307.258 771.054 307.425 770.954 307.625C770.854 307.825 770.804 308.05 770.804 308.3C770.821 308.517 770.871 308.725 770.954 308.925C771.054 309.108 771.188 309.267 771.354 309.4C771.538 309.533 771.813 309.675 772.179 309.825C772.546 309.975 773.013 310.117 773.579 310.25C774.413 310.467 775.096 310.708 775.629 310.975C776.179 311.225 776.613 311.517 776.929 311.85C777.263 312.167 777.496 312.533 777.629 312.95C777.763 313.367 777.829 313.833 777.829 314.35C777.829 315.1 777.613 315.775 777.179 316.375C776.763 316.958 776.196 317.417 775.479 317.75C774.763 318.083 773.963 318.25 773.079 318.25Z" fill="black"/>
<path d="M865.667 309C865.667 311.946 868.054 314.333 871 314.333C873.946 314.333 876.333 311.946 876.333 309C876.333 306.054 873.946 303.667 871 303.667C868.054 303.667 865.667 306.054 865.667 309ZM792 309V310H871V309V308H792V309Z" fill="black"/>
<path d="M79.3333 309C79.3333 306.054 76.9455 303.667 74 303.667C71.0545 303.667 68.6667 306.054 68.6667 309C68.6667 311.946 71.0545 314.333 74 314.333C76.9455 314.333 79.3333 311.946 79.3333 309ZM153 309V308H74V309V310H153V309Z" fill="black"/>
</g>
<defs>
<clipPath id="clip0_12_130">
<rect width="963" height="352" fill="white"/>
</clipPath>
</defs>
</svg>
