<svg width="256" height="256" viewBox="0 0 256 256" fill="none" xmlns="http://www.w3.org/2000/svg">
<g clip-path="url(#clip0_43_86)">
<rect width="256" height="256" rx="128" fill="black"/>
<path d="M149.709 37.4274L134.298 43.2983L144.572 65.3144L204.75 35.2258L187.871 12.4758L149.709 32.2903V37.4274Z" fill="white"/>
<path d="M209.153 39.629L146.04 70.4515L155.581 96.137L226.032 70.4515L209.153 39.629Z" fill="white"/>
<path d="M142.371 124.758V113.75L184.935 97.6047L204.016 139.435L168.056 159.984L142.371 124.758Z" fill="white"/>
<path d="M156.315 229.701L147.508 231.169L127.694 195.943L154.847 178.331L156.315 229.701Z" fill="white"/>
<path d="M140.903 142.371L107.879 164.387L125.492 190.072L158.516 168.056L140.903 142.371Z" fill="white"/>
<path d="M120.355 198.145L79.2581 209.153L103.476 249.516L141.637 231.903L120.355 198.145Z" fill="white"/>
<path d="M89.5319 155.581L66.0481 179.064V185.669L75.5884 200.347L110.814 187.871L89.5319 155.581Z" fill="white"/>
<path d="M74.8549 124.758L40.363 129.161L48.4356 144.573L77.0565 129.161L74.8549 124.758Z" fill="white"/>
<path d="M39.6288 122.556L36.6934 113.75C59.2623 104.038 70.4357 96.2047 88.0642 78.524L113.016 110.08L39.6288 122.556Z" fill="white"/>
<path d="M126.96 46.2338L94.6694 74.1208L121.823 104.209L148.242 93.9353L139.435 67.516L126.96 46.2338Z" fill="white"/>
<path d="M61.6451 172.459L55.7742 157.782L83.6612 141.637L88.0644 147.508L61.6451 172.459Z" fill="white"/>
<path d="M123.29 124.758L97.605 148.976L104.944 159.25L136.5 135.766L129.161 124.758H123.29Z" fill="white"/>
<path d="M71.1851 209.887L32.29 227.5L68.2496 268.597L95.4028 251.718L71.1851 209.887Z" fill="white"/>
<path d="M33.0243 194.476L17.613 203.282L27.1533 222.363L43.2985 213.556L33.0243 194.476Z" fill="white"/>
<path d="M55.774 182.734L38.1611 193.008L48.4353 212.822L67.5159 204.016L55.774 182.734Z" fill="white"/>
<path d="M12.4758 206.218L0 214.29V223.831L5.87095 234.105L21.2822 223.831L12.4758 206.218Z" fill="white"/>
<path d="M8.80643 51.371L0 54.3064V115.218L24.2177 104.943L8.80643 51.371Z" fill="white"/>
<path d="M24.9516 110.081L0.733887 119.621V143.105L15.4113 137.968L27.1532 158.516L41.0967 149.71L24.9516 110.081Z" fill="white"/>
<path d="M16.879 154.113L0 161.451V176.129L23.4838 164.387L16.879 154.113Z" fill="white"/>
<path d="M147.508 0H67.5159L126.959 36.6935L147.508 0Z" fill="white"/>
<path d="M11.7419 41.8306L0 25.6854V0.733887H21.2822L39.6289 22.75L11.7419 41.8306Z" fill="white"/>
<path d="M51.3708 0.733887L38.895 15.4113L74.1207 52.1047L97.6046 28.6209L51.3708 0.733887Z" fill="white"/>
<path d="M42.5645 30.8225L12.4758 52.1047L27.8871 90.9998L67.516 58.7095L42.5645 30.8225Z" fill="white"/>
<path d="M105.677 30.8225L78.5239 57.9757L91.7336 70.4515L120.354 41.0967L105.677 30.8225Z" fill="white"/>
<path d="M71.9194 62.379L30.0889 95.4031L35.226 110.081L82.1936 73.3871L71.9194 62.379Z" fill="white"/>
<path d="M154.847 0.733887L139.435 24.2177L144.572 30.0887L184.201 8.80645L176.863 0.733887H154.847Z" fill="white"/>
<path d="M261.992 54.3063L237.04 0.733887H187.871C213.085 22.2492 223.631 36.7071 237.04 66.0482L261.992 54.3063Z" fill="white"/>
<path d="M273 60.9113L250.25 71.9193L273 124.024V60.9113Z" fill="white"/>
<path d="M244.379 72.6531L191.541 95.403L208.42 135.766L260.524 107.879L244.379 72.6531Z" fill="white"/>
<path d="M261.992 113.75L169.524 164.387L195.21 184.935L215.758 170.258H220.895L272.266 135.032L261.992 113.75Z" fill="white"/>
<path d="M272.266 189.339L226.766 220.161L272.266 249.516V189.339Z" fill="white"/>
<path d="M232.637 169.524L201.081 192.274L220.895 216.492L250.25 195.943L232.637 169.524Z" fill="white"/>
<path d="M165.121 170.992L158.516 175.395V202.548H162.919V228.968L210.621 217.226L193.008 193.008L165.121 170.992Z" fill="white"/>
<path d="M271.532 259.79L242.177 244.379V252.451L250.25 272.266H271.532V259.79Z" fill="white"/>
<path d="M226.766 268.597V272.266H245.113L237.774 253.919L226.766 268.597Z" fill="white"/>
<path d="M172.46 273L155.581 237.774L209.153 228.968L227.5 239.976L233.371 250.25L216.492 273H172.46Z" fill="white"/>
<path d="M115.951 273L104.943 255.387L146.774 237.04L165.121 273H115.951Z" fill="white"/>
<path d="M7.33862 239.242L23.4837 272.266H60.9111L25.6854 229.702L7.33862 239.242Z" fill="white"/>
</g>
<defs>
<clipPath id="clip0_43_86">
<rect width="256" height="256" rx="128" fill="white"/>
</clipPath>
</defs>
</svg>
