<svg width="185" height="188" viewBox="0 0 185 188" fill="none" xmlns="http://www.w3.org/2000/svg">
<rect width="26" height="26" fill="white"/>
<rect x="32" width="26" height="26" fill="white"/>
<rect x="64" width="26" height="26" fill="white"/>
<rect x="95" width="26" height="26" fill="white"/>
<rect x="127" width="26" height="26" fill="white"/>
<rect x="159" width="26" height="26" fill="white"/>
<rect y="33" width="26" height="26" fill="white"/>
<rect x="32" y="33" width="26" height="26" fill="white"/>
<rect x="64" y="33" width="26" height="26" fill="white"/>
<rect x="95" y="33" width="26" height="26" fill="white"/>
<rect x="127" y="33" width="26" height="26" fill="white"/>
<rect x="159" y="33" width="26" height="26" fill="white"/>
<rect y="66" width="26" height="26" fill="white"/>
<rect x="32" y="66" width="26" height="26" fill="white"/>
<rect x="64" y="66" width="26" height="26" fill="white"/>
<rect x="95" y="66" width="26" height="26" fill="white"/>
<rect x="127" y="66" width="26" height="26" fill="white"/>
<rect x="159" y="66" width="26" height="26" fill="white"/>
<rect y="99" width="26" height="26" fill="white"/>
<rect x="32" y="99" width="26" height="26" fill="white"/>
<rect x="64" y="99" width="26" height="26" fill="white"/>
<rect x="95" y="99" width="26" height="26" fill="white"/>
<rect x="127" y="99" width="26" height="26" fill="white"/>
<rect x="159" y="99" width="26" height="26" fill="white"/>
<rect y="129" width="26" height="26" fill="white"/>
<rect x="32" y="129" width="26" height="26" fill="white"/>
<rect x="64" y="129" width="26" height="26" fill="white"/>
<rect x="95" y="129" width="26" height="26" fill="white"/>
<rect x="127" y="129" width="26" height="26" fill="white"/>
<rect x="159" y="129" width="26" height="26" fill="white"/>
<rect y="162" width="26" height="26" fill="white"/>
<rect x="32" y="162" width="26" height="26" fill="white"/>
<rect x="64" y="162" width="26" height="26" fill="white"/>
<rect x="95" y="162" width="26" height="26" fill="white"/>
<rect x="127" y="162" width="26" height="26" fill="white"/>
<rect x="159" y="162" width="26" height="26" fill="white"/>
</svg>
