<svg width="186" height="186" viewBox="0 0 186 186" fill="none" xmlns="http://www.w3.org/2000/svg">
<rect y="8" width="23" height="24" fill="white"/>
<rect x="29" width="37" height="22" fill="white"/>
<rect x="73" y="8" width="38" height="20" fill="white"/>
<rect x="118" width="29" height="36" fill="white"/>
<rect x="154" width="32" height="16" fill="white"/>
<rect y="39" width="26" height="20" fill="white"/>
<rect x="33" y="28" width="33" height="21" fill="white"/>
<rect x="72" y="36" width="33" height="21" fill="white"/>
<rect x="111" y="42" width="27" height="21" fill="white"/>
<rect x="147" y="47" width="32" height="16" fill="white"/>
<rect x="154" y="22" width="32" height="20" fill="white"/>
<rect x="6" y="63" width="25" height="21" fill="white"/>
<rect x="36" y="55" width="24" height="34" fill="white"/>
<rect x="65" y="63" width="26" height="26" fill="white"/>
<rect x="98" y="74" width="23" height="38" fill="white"/>
<rect x="125" y="69" width="22" height="37" fill="white"/>
<rect x="154" y="72" width="32" height="34" fill="white"/>
<rect y="89" width="21" height="23" fill="white"/>
<rect x="29" y="93" width="21" height="19" fill="white"/>
<rect x="60" y="98" width="32" height="22" fill="white"/>
<rect x="98" y="120" width="30" height="21" fill="white"/>
<rect x="136" y="112" width="27" height="29" fill="white"/>
<rect x="170" y="112" width="11" height="29" fill="white"/>
<rect x="6" y="120" width="13" height="27" fill="white"/>
<rect y="152" width="21" height="34" fill="white"/>
<rect x="26" y="120" width="22" height="17" fill="white"/>
<rect x="53" y="129" width="33" height="15" fill="white"/>
<rect x="23" y="144" width="20" height="36" fill="white"/>
<rect x="48" y="152" width="30" height="34" fill="white"/>
<rect x="86" y="152" width="21" height="28" fill="white"/>
<rect x="111" y="144" width="30" height="42" fill="white"/>
<rect x="147" y="147" width="23" height="15" fill="white"/>
<rect x="154" y="169" width="16" height="15" fill="white"/>
<rect x="173" y="152" width="13" height="28" fill="white"/>
</svg>
