<svg width="186" height="186" viewBox="0 0 186 186" fill="none" xmlns="http://www.w3.org/2000/svg">
<path d="M102 25.5L91.5 29.5L98.5 44.5L139.5 24L128 8.5L102 22V25.5Z" fill="white"/>
<path d="M142.5 27L99.5 48L106 65.5L154 48L142.5 27Z" fill="white"/>
<path d="M97 85V77.5L126 66.5L139 95L114.5 109L97 85Z" fill="white"/>
<path d="M106.5 156.5L100.5 157.5L87 133.5L105.5 121.5L106.5 156.5Z" fill="white"/>
<path d="M96 97L73.5 112L85.5 129.5L108 114.5L96 97Z" fill="white"/>
<path d="M82 135L54 142.5L70.5 170L96.5 158L82 135Z" fill="white"/>
<path d="M61 106L45 122V126.5L51.5 136.5L75.5 128L61 106Z" fill="white"/>
<path d="M51 85L27.5 88L33 98.5L52.5 88L51 85Z" fill="white"/>
<path d="M27 83.5L25 77.5C40.3767 70.8829 47.9893 65.5462 60 53.5L77 75L27 83.5Z" fill="white"/>
<path d="M86.5 31.5L64.5 50.5L83 71L101 64L95 46L86.5 31.5Z" fill="white"/>
<path d="M42 117.5L38 107.5L57 96.5L60 100.5L42 117.5Z" fill="white"/>
<path d="M84 85L66.5 101.5L71.5 108.5L93 92.5L88 85H84Z" fill="white"/>
<path d="M48.5 143L22 155L46.5 183L65 171.5L48.5 143Z" fill="white"/>
<path d="M22.5 132.5L12 138.5L18.5 151.5L29.5 145.5L22.5 132.5Z" fill="white"/>
<path d="M38 124.5L26 131.5L33 145L46 139L38 124.5Z" fill="white"/>
<path d="M8.5 140.5L0 146V152.5L4 159.5L14.5 152.5L8.5 140.5Z" fill="white"/>
<path d="M6 35L0 37V78.5L16.5 71.5L6 35Z" fill="white"/>
<path d="M17 75L0.5 81.5V97.5L10.5 94L18.5 108L28 102L17 75Z" fill="white"/>
<path d="M11.5 105L0 110V120L16 112L11.5 105Z" fill="white"/>
<path d="M100.5 0H46L86.5 25L100.5 0Z" fill="white"/>
<path d="M8 28.5L0 17.5V0.5H14.5L27 15.5L8 28.5Z" fill="white"/>
<path d="M35 0.5L26.5 10.5L50.5 35.5L66.5 19.5L35 0.5Z" fill="white"/>
<path d="M29 21L8.5 35.5L19 62L46 40L29 21Z" fill="white"/>
<path d="M72 21L53.5 39.5L62.5 48L82 28L72 21Z" fill="white"/>
<path d="M49 42.5L20.5 65L24 75L56 50L49 42.5Z" fill="white"/>
<path d="M105.5 0.5L95 16.5L98.5 20.5L125.5 6L120.5 0.5H105.5Z" fill="white"/>
<path d="M178.5 37L161.5 0.5H128C145.179 15.1588 152.364 25.0092 161.5 45L178.5 37Z" fill="white"/>
<path d="M185.5 0.5H174.5L185.5 19.5V0.5Z" fill="white"/>
<path d="M186 41.5L170.5 49L186 84.5V41.5Z" fill="white"/>
<path d="M166.5 49.5L130.5 65L142 92.5L177.5 73.5L166.5 49.5Z" fill="white"/>
<path d="M178.5 77.5L115.5 112L133 126L147 116H150.5L185.5 92L178.5 77.5Z" fill="white"/>
<path d="M185.5 129L154.5 150L185.5 170V129Z" fill="white"/>
<path d="M158.5 115.5L137 131L150.5 147.5L170.5 133.5L158.5 115.5Z" fill="white"/>
<path d="M112.5 116.5L108 119.5V138H111V156L143.5 148L131.5 131.5L112.5 116.5Z" fill="white"/>
<path d="M185 177L165 166.5V172L170.5 185.5H185V177Z" fill="white"/>
<path d="M154.5 183V185.5H167L162 173L154.5 183Z" fill="white"/>
<path d="M117.5 186L106 162L142.5 156L155 163.5L159 170.5L147.5 186H117.5Z" fill="white"/>
<path d="M79 186L71.5 174L100 161.5L112.5 186H79Z" fill="white"/>
<path d="M67.5 174.5L49 184.5H74L67.5 174.5Z" fill="white"/>
<path d="M5 163L16 185.5H41.5L17.5 156.5L5 163Z" fill="white"/>
</svg>
